<?xml version="1.0" encoding="utf-8" standalone="no"?>
<!DOCTYPE svg PUBLIC "-//W3C//DTD SVG 1.1//EN"
  "http://www.w3.org/Graphics/SVG/1.1/DTD/svg11.dtd">
<svg xmlns:xlink="http://www.w3.org/1999/xlink" width="1440pt" height="720pt" viewBox="0 0 1440 720" xmlns="http://www.w3.org/2000/svg" version="1.1">
 <metadata>
  <rdf:RDF xmlns:dc="http://purl.org/dc/elements/1.1/" xmlns:cc="http://creativecommons.org/ns#" xmlns:rdf="http://www.w3.org/1999/02/22-rdf-syntax-ns#">
   <cc:Work>
    <dc:type rdf:resource="http://purl.org/dc/dcmitype/StillImage"/>
    <dc:date>2024-07-13T13:02:12.835688</dc:date>
    <dc:format>image/svg+xml</dc:format>
    <dc:creator>
     <cc:Agent>
      <dc:title>Matplotlib v3.8.2, https://matplotlib.org/</dc:title>
     </cc:Agent>
    </dc:creator>
   </cc:Work>
  </rdf:RDF>
 </metadata>
 <defs>
  <style type="text/css">*{stroke-linejoin: round; stroke-linecap: butt}</style>
 </defs>
 <g id="figure_1">
  <g id="patch_1">
   <path d="M 0 720 
L 1440 720 
L 1440 0 
L 0 0 
z
" style="fill: #ffffff"/>
  </g>
  <g id="axes_1">
   <g id="patch_2">
    <path d="M 727.642409 225.387554 
C 724.195918 225.645832 720.760294 226.032934 717.342742 226.548047 
C 713.92519 227.063161 710.5281 227.705925 707.158599 228.474991 
L 681.244479 114.937816 
C 687.445164 113.52255 693.696618 112.339711 699.985727 111.391781 
C 706.274837 110.44385 712.597204 109.73149 718.939567 109.256196 
z
" clip-path="url(#p6fd564ea2c)" style="fill: #1f77b4; stroke: #ffffff; stroke-width: 2; stroke-linejoin: miter"/>
   </g>
   <g id="patch_3">
    <path d="M 707.158599 228.474991 
C 703.789097 229.244058 700.44954 230.13889 697.146933 231.157609 
C 693.844325 232.176329 690.580978 233.318223 687.363734 234.580898 
L 676.802703 207.671831 
C 680.690956 206.145804 684.634929 204.765749 688.62635 203.534558 
C 692.617771 202.303368 696.653847 201.221905 700.726114 200.292436 
z
" clip-path="url(#p6fd564ea2c)" style="fill: #1f77b4; stroke: #ffffff; stroke-width: 2; stroke-linejoin: miter"/>
   </g>
   <g id="patch_4">
    <path d="M 687.363734 234.580898 
C 684.14649 235.843574 680.977602 237.226146 677.863714 238.725715 
C 674.749826 240.225284 671.693118 241.840802 668.7 243.568879 
L 658.491473 225.887191 
C 661.925504 223.904552 665.432494 222.051054 669.005086 220.330584 
C 672.577678 218.610114 676.213373 217.023877 679.904546 215.575198 
z
" clip-path="url(#p6fd564ea2c)" style="fill: #1f77b4; stroke: #ffffff; stroke-width: 2; stroke-linejoin: miter"/>
   </g>
   <g id="patch_5">
    <path d="M 668.7 243.568879 
C 665.706882 245.296956 662.779449 247.136385 659.92384 249.083306 
C 657.068231 251.030227 654.286444 253.083279 651.584313 255.238157 
L 640.653498 241.531347 
C 643.697424 239.103897 646.831082 236.791152 650.0479 234.597963 
C 653.264718 232.404773 656.562446 230.332673 659.934166 228.38601 
z
" clip-path="url(#p6fd564ea2c)" style="fill: #1f77b4; stroke: #ffffff; stroke-width: 2; stroke-linejoin: miter"/>
   </g>
   <g id="patch_6">
    <path d="M 651.584313 255.238157 
C 648.882183 257.393034 646.261599 259.648228 643.728059 261.999011 
C 641.194518 264.349793 638.749793 266.794518 636.399011 269.328059 
L 629.659563 263.074765 
C 632.166279 260.373169 634.773169 257.766279 637.474765 255.259563 
C 640.176362 252.752848 642.970776 250.348061 645.852145 248.050245 
z
" clip-path="url(#p6fd564ea2c)" style="fill: #1f77b4; stroke: #ffffff; stroke-width: 2; stroke-linejoin: miter"/>
   </g>
   <g id="patch_7">
    <path d="M 623.483306 285.52384 
C 621.536385 288.379449 619.696956 291.306882 617.968879 294.3 
C 616.240802 297.293118 614.625284 300.349826 613.125715 303.463714 
L 501.637383 249.773763 
C 504.475774 243.879782 507.533633 238.09403 510.804546 232.428643 
C 514.075458 226.763256 517.557137 221.222197 521.242278 215.817087 
z
" clip-path="url(#p6fd564ea2c)" style="fill: #ff7f0e; stroke: #ffffff; stroke-width: 2; stroke-linejoin: miter"/>
   </g>
   <g id="patch_8">
    <path d="M 613.125715 303.463714 
C 611.626146 306.577602 610.243574 309.74649 608.980898 312.963734 
C 607.718223 316.180978 606.576329 319.444325 605.557609 322.746933 
L 531.686092 299.960588 
C 533.273016 294.815907 535.051818 289.732383 537.018767 284.720679 
C 538.985716 279.708974 541.139436 274.772595 543.47541 269.921895 
z
" clip-path="url(#p6fd564ea2c)" style="fill: #ff7f0e; stroke: #ffffff; stroke-width: 2; stroke-linejoin: miter"/>
   </g>
   <g id="patch_9">
    <path d="M 605.557609 322.746933 
C 604.53889 326.04954 603.644058 329.389097 602.874991 332.758599 
C 602.105925 336.1281 601.463161 339.52519 600.948047 342.942742 
L 551.723687 335.523363 
C 552.423811 330.878343 553.297434 326.261136 554.342723 321.681425 
C 555.388012 317.101714 556.604237 312.562703 557.988845 308.073912 
z
" clip-path="url(#p6fd564ea2c)" style="fill: #ff7f0e; stroke: #ffffff; stroke-width: 2; stroke-linejoin: miter"/>
   </g>
   <g id="patch_10">
    <path d="M 600.948047 342.942742 
C 600.432934 346.360294 600.045832 349.795918 599.787554 353.242409 
C 599.529275 356.6889 599.4 360.143845 599.4 363.6 
L 552.562222 363.6 
C 552.562222 358.97589 552.735184 354.353398 553.080744 349.742218 
C 553.426304 345.131037 553.944221 340.534396 554.633409 335.961933 
z
" clip-path="url(#p6fd564ea2c)" style="fill: #ff7f0e; stroke: #ffffff; stroke-width: 2; stroke-linejoin: miter"/>
   </g>
   <g id="patch_11">
    <path d="M 599.4 363.6 
C 599.4 367.056155 599.529275 370.5111 599.787554 373.957591 
C 600.045832 377.404082 600.432934 380.839706 600.948047 384.257258 
L 579.627767 387.470773 
C 579.032521 383.521575 578.5852 379.551493 578.286743 375.568854 
C 577.988285 371.586215 577.8389 367.593806 577.8389 363.6 
z
" clip-path="url(#p6fd564ea2c)" style="fill: #ff7f0e; stroke: #ffffff; stroke-width: 2; stroke-linejoin: miter"/>
   </g>
   <g id="patch_12">
    <path d="M 605.557609 404.453067 
C 606.576329 407.755675 607.718223 411.019022 608.980898 414.236266 
C 610.243574 417.45351 611.626146 420.622398 613.125715 423.736286 
L 532.526159 462.550987 
C 530.0587 457.427254 527.783752 452.21302 525.706089 446.91922 
C 523.628426 441.625421 521.7495 436.25576 520.073253 430.821499 
z
" clip-path="url(#p6fd564ea2c)" style="fill: #2ca02c; stroke: #ffffff; stroke-width: 2; stroke-linejoin: miter"/>
   </g>
   <g id="patch_13">
    <path d="M 613.125715 423.736286 
C 614.625284 426.850174 616.240802 429.906882 617.968879 432.9 
C 619.696956 435.893118 621.536385 438.820551 623.483306 441.67616 
L 599.05606 458.330374 
C 596.693846 454.865643 594.462055 451.313767 592.365366 447.682195 
C 590.268677 444.050624 588.308558 440.341897 586.48912 436.563794 
z
" clip-path="url(#p6fd564ea2c)" style="fill: #2ca02c; stroke: #ffffff; stroke-width: 2; stroke-linejoin: miter"/>
   </g>
   <g id="patch_14">
    <path d="M 623.483306 441.67616 
C 625.430227 444.531769 627.483279 447.313556 629.638157 450.015687 
C 631.793034 452.717817 634.048228 455.338401 636.399011 457.871941 
L 615.776262 477.007056 
C 612.948323 473.959262 610.235374 470.806758 607.643105 467.556155 
C 605.050835 464.305552 602.581059 460.959124 600.238956 457.52389 
z
" clip-path="url(#p6fd564ea2c)" style="fill: #2ca02c; stroke: #ffffff; stroke-width: 2; stroke-linejoin: miter"/>
   </g>
   <g id="patch_15">
    <path d="M 636.399011 457.871941 
C 638.749793 460.405482 641.194518 462.850207 643.728059 465.200989 
C 646.261599 467.551772 648.882183 469.806966 651.584313 471.961843 
L 637.543426 489.568559 
C 634.402252 487.063556 631.355873 484.441935 628.410681 481.709196 
C 625.465489 478.976457 622.623543 476.134511 619.890804 473.189319 
z
" clip-path="url(#p6fd564ea2c)" style="fill: #2ca02c; stroke: #ffffff; stroke-width: 2; stroke-linejoin: miter"/>
   </g>
   <g id="patch_16">
    <path d="M 651.584313 471.961843 
C 654.286444 474.116721 657.068231 476.169773 659.92384 478.116694 
C 662.779449 480.063615 665.706882 481.903044 668.7 483.631121 
L 658.609768 501.107916 
C 655.180845 499.128227 651.827171 497.020974 648.555779 494.790576 
C 645.284387 492.560179 642.097566 490.208198 639.002 487.739566 
z
" clip-path="url(#p6fd564ea2c)" style="fill: #2ca02c; stroke: #ffffff; stroke-width: 2; stroke-linejoin: miter"/>
   </g>
   <g id="patch_17">
    <path d="M 687.363734 492.619102 
C 690.580978 493.881777 693.844325 495.023671 697.146933 496.042391 
C 700.44954 497.06111 703.789097 497.955942 707.158599 498.725009 
L 693.979537 556.466251 
C 689.170189 555.368548 684.403582 554.09134 679.689714 552.637304 
C 674.975846 551.183268 670.318013 549.553422 665.725986 547.751184 
z
" clip-path="url(#p6fd564ea2c)" style="fill: #d62728; stroke: #ffffff; stroke-width: 2; stroke-linejoin: miter"/>
   </g>
   <g id="patch_18">
    <path d="M 707.158599 498.725009 
C 710.5281 499.494075 713.92519 500.136839 717.342742 500.651953 
C 720.760294 501.167066 724.195918 501.554168 727.642409 501.812446 
L 724.248026 547.107345 
C 719.672053 546.764423 715.110508 546.250461 710.572958 545.566535 
C 706.035407 544.882609 701.525026 544.029199 697.051273 543.008094 
z
" clip-path="url(#p6fd564ea2c)" style="fill: #d62728; stroke: #ffffff; stroke-width: 2; stroke-linejoin: miter"/>
   </g>
   <g id="patch_19">
    <path d="M 727.642409 501.812446 
C 731.0889 502.070725 734.543845 502.2 738 502.2 
C 741.456155 502.2 744.9111 502.070725 748.357591 501.812446 
L 750.657349 532.50059 
C 746.445614 532.816216 742.223546 532.974194 738 532.974194 
C 733.776454 532.974194 729.554386 532.816216 725.342651 532.50059 
z
" clip-path="url(#p6fd564ea2c)" style="fill: #d62728; stroke: #ffffff; stroke-width: 2; stroke-linejoin: miter"/>
   </g>
   <g id="patch_20">
    <path d="M 748.357591 501.812446 
C 751.804082 501.554168 755.239706 501.167066 758.657258 500.651953 
C 762.07481 500.136839 765.4719 499.494075 768.841401 498.725009 
L 775.612476 528.391026 
C 771.503218 529.328938 767.360314 530.112818 763.192455 530.741021 
C 759.024597 531.369225 754.834698 531.841313 750.631548 532.156296 
z
" clip-path="url(#p6fd564ea2c)" style="fill: #d62728; stroke: #ffffff; stroke-width: 2; stroke-linejoin: miter"/>
   </g>
   <g id="patch_21">
    <path d="M 768.841401 498.725009 
C 772.210903 497.955942 775.55046 497.06111 778.853067 496.042391 
C 782.155675 495.023671 785.419022 493.881777 788.636266 492.619102 
L 796.480803 512.606655 
C 792.765146 514.064943 788.996242 515.383739 785.181997 516.560278 
C 781.367752 517.736817 777.510833 518.770275 773.619331 519.658485 
z
" clip-path="url(#p6fd564ea2c)" style="fill: #d62728; stroke: #ffffff; stroke-width: 2; stroke-linejoin: miter"/>
   </g>
   <g id="patch_22">
    <path d="M 807.3 483.631121 
C 810.293118 481.903044 813.220551 480.063615 816.07616 478.116694 
C 818.931769 476.169773 821.713556 474.116721 824.415687 471.961843 
L 853.911172 508.948012 
C 850.286748 511.838394 846.555478 514.592196 842.72519 517.203642 
C 838.894902 519.815089 834.968274 522.282352 830.953543 524.600259 
z
" clip-path="url(#p6fd564ea2c)" style="fill: #9467bd; stroke: #ffffff; stroke-width: 2; stroke-linejoin: miter"/>
   </g>
   <g id="patch_23">
    <path d="M 824.415687 471.961843 
C 827.117817 469.806966 829.738401 467.551772 832.271941 465.200989 
C 834.805482 462.850207 837.250207 460.405482 839.600989 457.871941 
L 868.748257 484.916654 
C 865.723083 488.177016 862.577016 491.323083 859.316654 494.348257 
C 856.056292 497.373432 852.683916 500.275596 849.206598 503.048664 
z
" clip-path="url(#p6fd564ea2c)" style="fill: #9467bd; stroke: #ffffff; stroke-width: 2; stroke-linejoin: miter"/>
   </g>
   <g id="patch_24">
    <path d="M 839.600989 457.871941 
C 841.951772 455.338401 844.206966 452.717817 846.361843 450.015687 
C 848.516721 447.313556 850.569773 444.531769 852.516694 441.67616 
L 884.003579 463.143555 
C 881.521343 466.784327 878.903795 470.330978 876.156424 473.776072 
C 873.409054 477.221166 870.533783 480.562291 867.536643 483.79244 
z
" clip-path="url(#p6fd564ea2c)" style="fill: #9467bd; stroke: #ffffff; stroke-width: 2; stroke-linejoin: miter"/>
   </g>
   <g id="patch_25">
    <path d="M 852.516694 441.67616 
C 854.463615 438.820551 856.303044 435.893118 858.031121 432.9 
C 859.759198 429.906882 861.374716 426.850174 862.874285 423.736286 
L 895.723581 439.555673 
C 893.829536 443.488697 891.789043 447.3495 889.606379 451.129984 
C 887.423716 454.910468 885.100409 458.607989 882.641333 462.214791 
z
" clip-path="url(#p6fd564ea2c)" style="fill: #9467bd; stroke: #ffffff; stroke-width: 2; stroke-linejoin: miter"/>
   </g>
   <g id="patch_26">
    <path d="M 862.874285 423.736286 
C 864.373854 420.622398 865.756426 417.45351 867.019102 414.236266 
C 868.281777 411.019022 869.423671 407.755675 870.442391 404.453067 
L 901.643749 414.077412 
C 900.385036 418.158062 898.974128 422.190203 897.413987 426.165379 
C 895.853845 430.140555 894.145561 434.055985 892.292716 437.903456 
z
" clip-path="url(#p6fd564ea2c)" style="fill: #9467bd; stroke: #ffffff; stroke-width: 2; stroke-linejoin: miter"/>
   </g>
   <g id="patch_27">
    <path d="M 875.051953 384.257258 
C 875.567066 380.839706 875.954168 377.404082 876.212446 373.957591 
C 876.470725 370.5111 876.6 367.056155 876.6 363.6 
L 934.064703 363.6 
C 934.064703 368.489105 933.88183 373.3765 933.516467 378.251934 
C 933.151103 383.127368 932.603506 387.98743 931.874823 392.821928 
z
" clip-path="url(#p6fd564ea2c)" style="fill: #8c564b; stroke: #ffffff; stroke-width: 2; stroke-linejoin: miter"/>
   </g>
   <g id="patch_28">
    <path d="M 876.6 363.6 
C 876.6 360.143845 876.470725 356.6889 876.212446 353.242409 
C 875.954168 349.795918 875.567066 346.360294 875.051953 342.942742 
L 925.202481 335.383766 
C 925.906086 340.051881 926.434838 344.744681 926.787627 349.452323 
C 927.140416 354.159966 927.316996 358.879157 927.316996 363.6 
z
" clip-path="url(#p6fd564ea2c)" style="fill: #8c564b; stroke: #ffffff; stroke-width: 2; stroke-linejoin: miter"/>
   </g>
   <g id="patch_29">
    <path d="M 875.051953 342.942742 
C 874.536839 339.52519 873.894075 336.1281 873.125009 332.758599 
C 872.355942 329.389097 871.46111 326.04954 870.442391 322.746933 
L 906.978251 311.477112 
C 908.277997 315.690785 909.419679 319.951599 910.400902 324.250619 
C 911.382125 328.549639 912.202204 332.883857 912.859417 337.244183 
z
" clip-path="url(#p6fd564ea2c)" style="fill: #8c564b; stroke: #ffffff; stroke-width: 2; stroke-linejoin: miter"/>
   </g>
   <g id="patch_30">
    <path d="M 870.442391 322.746933 
C 869.423671 319.444325 868.281777 316.180978 867.019102 312.963734 
C 865.756426 309.74649 864.373854 306.577602 862.874285 303.463714 
L 893.025672 288.943571 
C 894.887318 292.809319 896.603718 296.743349 898.171271 300.737409 
C 899.738824 304.731468 901.156433 308.782764 902.421127 312.882799 
z
" clip-path="url(#p6fd564ea2c)" style="fill: #8c564b; stroke: #ffffff; stroke-width: 2; stroke-linejoin: miter"/>
   </g>
   <g id="patch_31">
    <path d="M 862.874285 303.463714 
C 861.374716 300.349826 859.759198 297.293118 858.031121 294.3 
C 856.303044 291.306882 854.463615 288.379449 852.516694 285.52384 
L 874.781284 270.3441 
C 877.10673 273.754902 879.303784 277.251494 881.367838 280.82654 
C 883.431892 284.401586 885.361502 288.052587 887.152621 291.771883 
z
" clip-path="url(#p6fd564ea2c)" style="fill: #8c564b; stroke: #ffffff; stroke-width: 2; stroke-linejoin: miter"/>
   </g>
   <g id="patch_32">
    <path d="M 839.600989 269.328059 
C 837.250207 266.794518 834.805482 264.349793 832.271941 261.999011 
C 829.738401 259.648228 827.117817 257.393034 824.415687 255.238157 
L 869.525999 198.671614 
C 873.638683 201.95137 877.627252 205.38381 881.48334 208.961737 
C 885.339427 212.539664 889.060336 216.260573 892.638263 220.11666 
z
" clip-path="url(#p6fd564ea2c)" style="fill: #e377c2; stroke: #ffffff; stroke-width: 2; stroke-linejoin: miter"/>
   </g>
   <g id="patch_33">
    <path d="M 824.415687 255.238157 
C 821.713556 253.083279 818.931769 251.030227 816.07616 249.083306 
C 813.220551 247.136385 810.293118 245.296956 807.3 243.568879 
L 829.497646 205.121429 
C 833.449496 207.403031 837.314622 209.831651 841.084918 212.402195 
C 844.855214 214.972739 848.528042 217.683409 852.095698 220.52852 
z
" clip-path="url(#p6fd564ea2c)" style="fill: #e377c2; stroke: #ffffff; stroke-width: 2; stroke-linejoin: miter"/>
   </g>
   <g id="patch_34">
    <path d="M 807.3 243.568879 
C 804.306882 241.840802 801.250174 240.225284 798.136286 238.725715 
C 795.022398 237.226146 791.85351 235.843574 788.636266 234.580898 
L 799.221547 207.610042 
C 803.111341 209.136674 806.942671 210.808266 810.707503 212.621314 
C 814.472335 214.434361 818.168034 216.387595 821.78685 218.476919 
z
" clip-path="url(#p6fd564ea2c)" style="fill: #e377c2; stroke: #ffffff; stroke-width: 2; stroke-linejoin: miter"/>
   </g>
   <g id="patch_35">
    <path d="M 788.636266 234.580898 
C 785.419022 233.318223 782.155675 232.176329 778.853067 231.157609 
C 775.55046 230.13889 772.210903 229.244058 768.841401 228.474991 
L 774.939894 201.755751 
C 778.975671 202.67689 782.975582 203.748663 786.931238 204.968822 
C 790.886894 206.18898 794.795527 207.55667 798.648939 209.069023 
z
" clip-path="url(#p6fd564ea2c)" style="fill: #e377c2; stroke: #ffffff; stroke-width: 2; stroke-linejoin: miter"/>
   </g>
   <g id="patch_36">
    <path d="M 768.841401 228.474991 
C 765.4719 227.705925 762.07481 227.063161 758.657258 226.548047 
C 755.239706 226.032934 751.804082 225.645832 748.357591 225.387554 
L 749.955482 204.065176 
C 753.933672 204.3633 757.899318 204.810121 761.844105 205.404702 
C 765.788891 205.999283 769.710058 206.741208 773.599381 207.62892 
z
" clip-path="url(#p6fd564ea2c)" style="fill: #e377c2; stroke: #ffffff; stroke-width: 2; stroke-linejoin: miter"/>
   </g>
   <g id="matplotlib.axis_1"/>
   <g id="matplotlib.axis_2"/>
   <g id="line2d_1">
    <path d="M 718.375605 233.400645 
L 716.787085 233.650005 
L 715.201729 233.918746 
L 713.619773 234.206826 
L 712.041452 234.514204 
L 710.467004 234.840833 
L 708.896661 235.186665 
L 707.330659 235.551648 
L 705.76923 235.935728 
L 704.212609 236.338847 
L 702.661026 236.760945 
L 701.114714 237.20196 
L 699.573903 237.661825 
L 698.038822 238.140472 
L 696.509701 238.63783 
L 694.986768 239.153824 
L 693.470249 239.688377 
L 691.960372 240.241411 
L 690.457361 240.812841 
L 688.96144 241.402584 
L 687.472832 242.010551 
L 685.99176 242.636651 
L 684.518444 243.280791 
L 683.053105 243.942875 
L 681.59596 244.622804 
L 680.147226 245.320477 
L 678.707121 246.03579 
L 677.275859 246.768636 
L 675.853652 247.518906 
L 674.440714 248.286488 
L 673.037255 249.071267 
L 671.643485 249.873126 
L 670.25961 250.691947 
L 668.885838 251.527606 
L 667.522373 252.379979 
L 666.16942 253.248939 
L 664.827178 254.134357 
L 663.49585 255.036099 
L 662.175633 255.954033 
L 660.866723 256.888021 
L 659.569318 257.837923 
L 658.283609 258.803598 
L 657.009789 259.784902 
L 655.748047 260.781689 
L 654.498572 261.793809 
L 653.26155 262.821113 
L 652.037166 263.863446 
L 650.825602 264.920654 
L 649.627039 265.992579 
L 648.441656 267.07906 
" clip-path="url(#p6fd564ea2c)" style="fill: none; stroke: #333333; stroke-width: 1.5; stroke-linecap: square"/>
   </g>
   <g id="line2d_2">
    <path d="M 623.970435 297.765 
L 623.174967 299.162428 
L 622.396623 300.569467 
L 621.63552 301.985905 
L 620.891771 303.411532 
L 620.165487 304.846136 
L 619.456777 306.289502 
L 618.765746 307.741415 
L 618.092497 309.201659 
L 617.43713 310.670015 
L 616.799744 312.146265 
L 616.180433 313.630189 
L 615.57929 315.121565 
L 614.996404 316.620171 
L 614.431863 318.125783 
L 613.88575 319.638178 
L 613.358147 321.157128 
L 612.849133 322.682408 
L 612.358783 324.213791 
L 611.887171 325.751048 
L 611.434367 327.293949 
L 611.000438 328.842265 
L 610.58545 330.395764 
L 610.189464 331.954215 
L 609.812539 333.517386 
L 609.454731 335.085043 
L 609.116094 336.656953 
L 608.796679 338.232882 
L 608.496532 339.812593 
L 608.215699 341.395852 
L 607.954222 342.982422 
L 607.712139 344.572067 
L 607.489487 346.16455 
L 607.286299 347.759633 
L 607.102605 349.357079 
L 606.938432 350.956648 
L 606.793806 352.558103 
L 606.668747 354.161205 
L 606.563274 355.765715 
L 606.477404 357.371393 
L 606.411148 358.978 
L 606.364517 360.585296 
L 606.337517 362.193042 
L 606.330153 363.800998 
L 606.342426 365.408923 
L 606.374334 367.016579 
L 606.425872 368.623726 
L 606.497033 370.230123 
L 606.587805 371.835531 
L 606.698176 373.439711 
" clip-path="url(#p6fd564ea2c)" style="fill: none; stroke: #333333; stroke-width: 1.5; stroke-linecap: square"/>
   </g>
   <g id="line2d_3">
    <path d="M 615.431854 411.704453 
L 616.028441 413.197657 
L 616.643218 414.683465 
L 617.276094 416.161654 
L 617.926975 417.632004 
L 618.595762 419.094297 
L 619.282358 420.548313 
L 619.986658 421.993836 
L 620.708559 423.43065 
L 621.447951 424.858541 
L 622.204727 426.277297 
L 622.978771 427.686705 
L 623.769969 429.086555 
L 624.578203 430.476639 
L 625.403352 431.856749 
L 626.245294 433.22668 
L 627.103902 434.586227 
L 627.979049 435.935187 
L 628.870604 437.273359 
L 629.778435 438.600544 
L 630.702404 439.916544 
L 631.642376 441.221162 
L 632.59821 442.514204 
L 633.569763 443.795477 
L 634.556891 445.06479 
L 635.559445 446.321954 
L 636.577277 447.56678 
L 637.610235 448.799084 
L 638.658165 450.018682 
L 639.72091 451.225392 
L 640.798312 452.419034 
L 641.89021 453.599429 
L 642.996442 454.766402 
L 644.116843 455.91978 
L 645.251245 457.059388 
L 646.399479 458.185059 
L 647.561374 459.296623 
L 648.736756 460.393916 
L 649.925451 461.476773 
L 651.127281 462.545034 
L 652.342068 463.598537 
L 653.569628 464.637128 
L 654.809781 465.66065 
L 656.06234 466.668951 
L 657.327119 467.661881 
L 658.603929 468.639292 
L 659.89258 469.601037 
L 661.19288 470.546974 
L 662.504634 471.476961 
L 663.827648 472.390859 
" clip-path="url(#p6fd564ea2c)" style="fill: none; stroke: #333333; stroke-width: 1.5; stroke-linecap: square"/>
   </g>
   <g id="line2d_4">
    <path d="M 699.189586 489.420271 
L 700.728986 489.884839 
L 702.273945 490.330572 
L 703.824232 490.757405 
L 705.379615 491.165275 
L 706.939864 491.55412 
L 708.504744 491.923882 
L 710.074024 492.274507 
L 711.647468 492.605942 
L 713.224843 492.918137 
L 714.805912 493.211046 
L 716.39044 493.484625 
L 717.978191 493.738834 
L 719.568928 493.973634 
L 721.162414 494.188991 
L 722.758411 494.384872 
L 724.356681 494.561249 
L 725.956986 494.718095 
L 727.559087 494.855386 
L 729.162744 494.973102 
L 730.76772 495.071225 
L 732.373775 495.149741 
L 733.980668 495.208639 
L 735.588161 495.247909 
L 737.196014 495.267545 
L 738.803986 495.267545 
L 740.411839 495.247909 
L 742.019332 495.208639 
L 743.626225 495.149741 
L 745.23228 495.071225 
L 746.837256 494.973102 
L 748.440913 494.855386 
L 750.043014 494.718095 
L 751.643319 494.561249 
L 753.241589 494.384872 
L 754.837586 494.188991 
L 756.431072 493.973634 
L 758.021809 493.738834 
L 759.60956 493.484625 
L 761.194088 493.211046 
L 762.775157 492.918137 
L 764.352532 492.605942 
L 765.925976 492.274507 
L 767.495256 491.923882 
L 769.060136 491.55412 
L 770.620385 491.165275 
L 772.175768 490.757405 
L 773.726055 490.330572 
L 775.271014 489.884839 
L 776.810414 489.420271 
" clip-path="url(#p6fd564ea2c)" style="fill: none; stroke: #333333; stroke-width: 1.5; stroke-linecap: square"/>
   </g>
   <g id="line2d_5">
    <path d="M 812.172352 472.390859 
L 813.495366 471.476961 
L 814.80712 470.546974 
L 816.10742 469.601037 
L 817.396071 468.639292 
L 818.672881 467.661881 
L 819.93766 466.668951 
L 821.190219 465.66065 
L 822.430372 464.637128 
L 823.657932 463.598537 
L 824.872719 462.545034 
L 826.074549 461.476773 
L 827.263244 460.393916 
L 828.438626 459.296623 
L 829.600521 458.185059 
L 830.748755 457.059388 
L 831.883157 455.91978 
L 833.003558 454.766402 
L 834.10979 453.599429 
L 835.201688 452.419034 
L 836.27909 451.225392 
L 837.341835 450.018682 
L 838.389765 448.799084 
L 839.422723 447.56678 
L 840.440555 446.321954 
L 841.443109 445.06479 
L 842.430237 443.795477 
L 843.40179 442.514204 
L 844.357624 441.221162 
L 845.297596 439.916544 
L 846.221565 438.600544 
L 847.129396 437.273359 
L 848.020951 435.935187 
L 848.896098 434.586227 
L 849.754706 433.22668 
L 850.596648 431.856749 
L 851.421797 430.476639 
L 852.230031 429.086555 
L 853.021229 427.686705 
L 853.795273 426.277297 
L 854.552049 424.858541 
L 855.291441 423.43065 
L 856.013342 421.993836 
L 856.717642 420.548313 
L 857.404238 419.094297 
L 858.073025 417.632004 
L 858.723906 416.161654 
L 859.356782 414.683465 
L 859.971559 413.197657 
L 860.568146 411.704453 
" clip-path="url(#p6fd564ea2c)" style="fill: none; stroke: #333333; stroke-width: 1.5; stroke-linecap: square"/>
   </g>
   <g id="line2d_6">
    <path d="M 869.301824 373.439711 
L 869.412195 371.835531 
L 869.502967 370.230123 
L 869.574128 368.623726 
L 869.625666 367.016579 
L 869.657574 365.408923 
L 869.669847 363.800998 
L 869.662483 362.193042 
L 869.635483 360.585296 
L 869.588852 358.978 
L 869.522596 357.371393 
L 869.436726 355.765715 
L 869.331253 354.161205 
L 869.206194 352.558103 
L 869.061568 350.956648 
L 868.897395 349.357079 
L 868.713701 347.759633 
L 868.510513 346.16455 
L 868.287861 344.572067 
L 868.045778 342.982422 
L 867.784301 341.395852 
L 867.503468 339.812593 
L 867.203321 338.232882 
L 866.883906 336.656953 
L 866.545269 335.085043 
L 866.187461 333.517386 
L 865.810536 331.954215 
L 865.41455 330.395764 
L 864.999562 328.842265 
L 864.565633 327.293949 
L 864.112829 325.751048 
L 863.641217 324.213791 
L 863.150867 322.682408 
L 862.641853 321.157128 
L 862.11425 319.638178 
L 861.568137 318.125783 
L 861.003596 316.620171 
L 860.42071 315.121565 
L 859.819567 313.630189 
L 859.200256 312.146265 
L 858.56287 310.670015 
L 857.907503 309.201659 
L 857.234254 307.741415 
L 856.543223 306.289502 
L 855.834513 304.846136 
L 855.108229 303.411532 
L 854.36448 301.985905 
L 853.603377 300.569467 
L 852.825033 299.162428 
L 852.029565 297.765 
" clip-path="url(#p6fd564ea2c)" style="fill: none; stroke: #333333; stroke-width: 1.5; stroke-linecap: square"/>
   </g>
   <g id="line2d_7">
    <path d="M 827.558344 267.07906 
L 826.372961 265.992579 
L 825.174398 264.920654 
L 823.962834 263.863446 
L 822.73845 262.821113 
L 821.501428 261.793809 
L 820.251953 260.781689 
L 818.990211 259.784902 
L 817.716391 258.803598 
L 816.430682 257.837923 
L 815.133277 256.888021 
L 813.824367 255.954033 
L 812.50415 255.036099 
L 811.172822 254.134357 
L 809.83058 253.248939 
L 808.477627 252.379979 
L 807.114162 251.527606 
L 805.74039 250.691947 
L 804.356515 249.873126 
L 802.962745 249.071267 
L 801.559286 248.286488 
L 800.146348 247.518906 
L 798.724141 246.768636 
L 797.292879 246.03579 
L 795.852774 245.320477 
L 794.40404 244.622804 
L 792.946895 243.942875 
L 791.481556 243.280791 
L 790.00824 242.636651 
L 788.527168 242.010551 
L 787.03856 241.402584 
L 785.542639 240.812841 
L 784.039628 240.241411 
L 782.529751 239.688377 
L 781.013232 239.153824 
L 779.490299 238.63783 
L 777.961178 238.140472 
L 776.426097 237.661825 
L 774.885286 237.20196 
L 773.338974 236.760945 
L 771.787391 236.338847 
L 770.23077 235.935728 
L 768.669341 235.551648 
L 767.103339 235.186665 
L 765.532996 234.840833 
L 763.958548 234.514204 
L 762.380227 234.206826 
L 760.798271 233.918746 
L 759.212915 233.650005 
L 757.624395 233.400645 
" clip-path="url(#p6fd564ea2c)" style="fill: none; stroke: #333333; stroke-width: 1.5; stroke-linecap: square"/>
   </g>
   <g id="text_1">
    <!-- Agricoltura -->
    <g transform="translate(688.237982 51.964626) rotate(-278.571429) scale(0.1 -0.1)">
     <defs>
      <path id="DejaVuSans-41" d="M 2188 4044 
L 1331 1722 
L 3047 1722 
L 2188 4044 
z
M 1831 4666 
L 2547 4666 
L 4325 0 
L 3669 0 
L 3244 1197 
L 1141 1197 
L 716 0 
L 50 0 
L 1831 4666 
z
" transform="scale(0.015625)"/>
      <path id="DejaVuSans-67" d="M 2906 1791 
Q 2906 2416 2648 2759 
Q 2391 3103 1925 3103 
Q 1463 3103 1205 2759 
Q 947 2416 947 1791 
Q 947 1169 1205 825 
Q 1463 481 1925 481 
Q 2391 481 2648 825 
Q 2906 1169 2906 1791 
z
M 3481 434 
Q 3481 -459 3084 -895 
Q 2688 -1331 1869 -1331 
Q 1566 -1331 1297 -1286 
Q 1028 -1241 775 -1147 
L 775 -588 
Q 1028 -725 1275 -790 
Q 1522 -856 1778 -856 
Q 2344 -856 2625 -561 
Q 2906 -266 2906 331 
L 2906 616 
Q 2728 306 2450 153 
Q 2172 0 1784 0 
Q 1141 0 747 490 
Q 353 981 353 1791 
Q 353 2603 747 3093 
Q 1141 3584 1784 3584 
Q 2172 3584 2450 3431 
Q 2728 3278 2906 2969 
L 2906 3500 
L 3481 3500 
L 3481 434 
z
" transform="scale(0.015625)"/>
      <path id="DejaVuSans-72" d="M 2631 2963 
Q 2534 3019 2420 3045 
Q 2306 3072 2169 3072 
Q 1681 3072 1420 2755 
Q 1159 2438 1159 1844 
L 1159 0 
L 581 0 
L 581 3500 
L 1159 3500 
L 1159 2956 
Q 1341 3275 1631 3429 
Q 1922 3584 2338 3584 
Q 2397 3584 2469 3576 
Q 2541 3569 2628 3553 
L 2631 2963 
z
" transform="scale(0.015625)"/>
      <path id="DejaVuSans-69" d="M 603 3500 
L 1178 3500 
L 1178 0 
L 603 0 
L 603 3500 
z
M 603 4863 
L 1178 4863 
L 1178 4134 
L 603 4134 
L 603 4863 
z
" transform="scale(0.015625)"/>
      <path id="DejaVuSans-63" d="M 3122 3366 
L 3122 2828 
Q 2878 2963 2633 3030 
Q 2388 3097 2138 3097 
Q 1578 3097 1268 2742 
Q 959 2388 959 1747 
Q 959 1106 1268 751 
Q 1578 397 2138 397 
Q 2388 397 2633 464 
Q 2878 531 3122 666 
L 3122 134 
Q 2881 22 2623 -34 
Q 2366 -91 2075 -91 
Q 1284 -91 818 406 
Q 353 903 353 1747 
Q 353 2603 823 3093 
Q 1294 3584 2113 3584 
Q 2378 3584 2631 3529 
Q 2884 3475 3122 3366 
z
" transform="scale(0.015625)"/>
      <path id="DejaVuSans-6f" d="M 1959 3097 
Q 1497 3097 1228 2736 
Q 959 2375 959 1747 
Q 959 1119 1226 758 
Q 1494 397 1959 397 
Q 2419 397 2687 759 
Q 2956 1122 2956 1747 
Q 2956 2369 2687 2733 
Q 2419 3097 1959 3097 
z
M 1959 3584 
Q 2709 3584 3137 3096 
Q 3566 2609 3566 1747 
Q 3566 888 3137 398 
Q 2709 -91 1959 -91 
Q 1206 -91 779 398 
Q 353 888 353 1747 
Q 353 2609 779 3096 
Q 1206 3584 1959 3584 
z
" transform="scale(0.015625)"/>
      <path id="DejaVuSans-6c" d="M 603 4863 
L 1178 4863 
L 1178 0 
L 603 0 
L 603 4863 
z
" transform="scale(0.015625)"/>
      <path id="DejaVuSans-74" d="M 1172 4494 
L 1172 3500 
L 2356 3500 
L 2356 3053 
L 1172 3053 
L 1172 1153 
Q 1172 725 1289 603 
Q 1406 481 1766 481 
L 2356 481 
L 2356 0 
L 1766 0 
Q 1100 0 847 248 
Q 594 497 594 1153 
L 594 3053 
L 172 3053 
L 172 3500 
L 594 3500 
L 594 4494 
L 1172 4494 
z
" transform="scale(0.015625)"/>
      <path id="DejaVuSans-75" d="M 544 1381 
L 544 3500 
L 1119 3500 
L 1119 1403 
Q 1119 906 1312 657 
Q 1506 409 1894 409 
Q 2359 409 2629 706 
Q 2900 1003 2900 1516 
L 2900 3500 
L 3475 3500 
L 3475 0 
L 2900 0 
L 2900 538 
Q 2691 219 2414 64 
Q 2138 -91 1772 -91 
Q 1169 -91 856 284 
Q 544 659 544 1381 
z
M 1991 3584 
L 1991 3584 
z
" transform="scale(0.015625)"/>
      <path id="DejaVuSans-61" d="M 2194 1759 
Q 1497 1759 1228 1600 
Q 959 1441 959 1056 
Q 959 750 1161 570 
Q 1363 391 1709 391 
Q 2188 391 2477 730 
Q 2766 1069 2766 1631 
L 2766 1759 
L 2194 1759 
z
M 3341 1997 
L 3341 0 
L 2766 0 
L 2766 531 
Q 2569 213 2275 61 
Q 1981 -91 1556 -91 
Q 1019 -91 701 211 
Q 384 513 384 1019 
Q 384 1609 779 1909 
Q 1175 2209 1959 2209 
L 2766 2209 
L 2766 2266 
Q 2766 2663 2505 2880 
Q 2244 3097 1772 3097 
Q 1472 3097 1187 3025 
Q 903 2953 641 2809 
L 641 3341 
Q 956 3463 1253 3523 
Q 1550 3584 1831 3584 
Q 2591 3584 2966 3190 
Q 3341 2797 3341 1997 
z
" transform="scale(0.015625)"/>
     </defs>
     <use xlink:href="#DejaVuSans-41"/>
     <use xlink:href="#DejaVuSans-67" x="68.408203"/>
     <use xlink:href="#DejaVuSans-72" x="131.884766"/>
     <use xlink:href="#DejaVuSans-69" x="172.998047"/>
     <use xlink:href="#DejaVuSans-63" x="200.78125"/>
     <use xlink:href="#DejaVuSans-6f" x="255.761719"/>
     <use xlink:href="#DejaVuSans-6c" x="316.943359"/>
     <use xlink:href="#DejaVuSans-74" x="344.726562"/>
     <use xlink:href="#DejaVuSans-75" x="383.935547"/>
     <use xlink:href="#DejaVuSans-72" x="447.314453"/>
     <use xlink:href="#DejaVuSans-61" x="488.427734"/>
    </g>
   </g>
   <g id="text_2">
    <!-- Allevamento -->
    <g transform="translate(665.825015 138.976028) rotate(-287.142857) scale(0.1 -0.1)">
     <defs>
      <path id="DejaVuSans-65" d="M 3597 1894 
L 3597 1613 
L 953 1613 
Q 991 1019 1311 708 
Q 1631 397 2203 397 
Q 2534 397 2845 478 
Q 3156 559 3463 722 
L 3463 178 
Q 3153 47 2828 -22 
Q 2503 -91 2169 -91 
Q 1331 -91 842 396 
Q 353 884 353 1716 
Q 353 2575 817 3079 
Q 1281 3584 2069 3584 
Q 2775 3584 3186 3129 
Q 3597 2675 3597 1894 
z
M 3022 2063 
Q 3016 2534 2758 2815 
Q 2500 3097 2075 3097 
Q 1594 3097 1305 2825 
Q 1016 2553 972 2059 
L 3022 2063 
z
" transform="scale(0.015625)"/>
      <path id="DejaVuSans-76" d="M 191 3500 
L 800 3500 
L 1894 563 
L 2988 3500 
L 3597 3500 
L 2284 0 
L 1503 0 
L 191 3500 
z
" transform="scale(0.015625)"/>
      <path id="DejaVuSans-6d" d="M 3328 2828 
Q 3544 3216 3844 3400 
Q 4144 3584 4550 3584 
Q 5097 3584 5394 3201 
Q 5691 2819 5691 2113 
L 5691 0 
L 5113 0 
L 5113 2094 
Q 5113 2597 4934 2840 
Q 4756 3084 4391 3084 
Q 3944 3084 3684 2787 
Q 3425 2491 3425 1978 
L 3425 0 
L 2847 0 
L 2847 2094 
Q 2847 2600 2669 2842 
Q 2491 3084 2119 3084 
Q 1678 3084 1418 2786 
Q 1159 2488 1159 1978 
L 1159 0 
L 581 0 
L 581 3500 
L 1159 3500 
L 1159 2956 
Q 1356 3278 1631 3431 
Q 1906 3584 2284 3584 
Q 2666 3584 2933 3390 
Q 3200 3197 3328 2828 
z
" transform="scale(0.015625)"/>
      <path id="DejaVuSans-6e" d="M 3513 2113 
L 3513 0 
L 2938 0 
L 2938 2094 
Q 2938 2591 2744 2837 
Q 2550 3084 2163 3084 
Q 1697 3084 1428 2787 
Q 1159 2491 1159 1978 
L 1159 0 
L 581 0 
L 581 3500 
L 1159 3500 
L 1159 2956 
Q 1366 3272 1645 3428 
Q 1925 3584 2291 3584 
Q 2894 3584 3203 3211 
Q 3513 2838 3513 2113 
z
" transform="scale(0.015625)"/>
     </defs>
     <use xlink:href="#DejaVuSans-41"/>
     <use xlink:href="#DejaVuSans-6c" x="68.408203"/>
     <use xlink:href="#DejaVuSans-6c" x="96.191406"/>
     <use xlink:href="#DejaVuSans-65" x="123.974609"/>
     <use xlink:href="#DejaVuSans-76" x="185.498047"/>
     <use xlink:href="#DejaVuSans-61" x="244.677734"/>
     <use xlink:href="#DejaVuSans-6d" x="305.957031"/>
     <use xlink:href="#DejaVuSans-65" x="403.369141"/>
     <use xlink:href="#DejaVuSans-6e" x="464.892578"/>
     <use xlink:href="#DejaVuSans-74" x="528.271484"/>
     <use xlink:href="#DejaVuSans-6f" x="567.480469"/>
    </g>
   </g>
   <g id="text_3">
    <!-- Industria -->
    <g transform="translate(644.970437 176.781833) rotate(-295.714286) scale(0.1 -0.1)">
     <defs>
      <path id="DejaVuSans-49" d="M 628 4666 
L 1259 4666 
L 1259 0 
L 628 0 
L 628 4666 
z
" transform="scale(0.015625)"/>
      <path id="DejaVuSans-64" d="M 2906 2969 
L 2906 4863 
L 3481 4863 
L 3481 0 
L 2906 0 
L 2906 525 
Q 2725 213 2448 61 
Q 2172 -91 1784 -91 
Q 1150 -91 751 415 
Q 353 922 353 1747 
Q 353 2572 751 3078 
Q 1150 3584 1784 3584 
Q 2172 3584 2448 3432 
Q 2725 3281 2906 2969 
z
M 947 1747 
Q 947 1113 1208 752 
Q 1469 391 1925 391 
Q 2381 391 2643 752 
Q 2906 1113 2906 1747 
Q 2906 2381 2643 2742 
Q 2381 3103 1925 3103 
Q 1469 3103 1208 2742 
Q 947 2381 947 1747 
z
" transform="scale(0.015625)"/>
      <path id="DejaVuSans-73" d="M 2834 3397 
L 2834 2853 
Q 2591 2978 2328 3040 
Q 2066 3103 1784 3103 
Q 1356 3103 1142 2972 
Q 928 2841 928 2578 
Q 928 2378 1081 2264 
Q 1234 2150 1697 2047 
L 1894 2003 
Q 2506 1872 2764 1633 
Q 3022 1394 3022 966 
Q 3022 478 2636 193 
Q 2250 -91 1575 -91 
Q 1294 -91 989 -36 
Q 684 19 347 128 
L 347 722 
Q 666 556 975 473 
Q 1284 391 1588 391 
Q 1994 391 2212 530 
Q 2431 669 2431 922 
Q 2431 1156 2273 1281 
Q 2116 1406 1581 1522 
L 1381 1569 
Q 847 1681 609 1914 
Q 372 2147 372 2553 
Q 372 3047 722 3315 
Q 1072 3584 1716 3584 
Q 2034 3584 2315 3537 
Q 2597 3491 2834 3397 
z
" transform="scale(0.015625)"/>
     </defs>
     <use xlink:href="#DejaVuSans-49"/>
     <use xlink:href="#DejaVuSans-6e" x="29.492188"/>
     <use xlink:href="#DejaVuSans-64" x="92.871094"/>
     <use xlink:href="#DejaVuSans-75" x="156.347656"/>
     <use xlink:href="#DejaVuSans-73" x="219.726562"/>
     <use xlink:href="#DejaVuSans-74" x="271.826172"/>
     <use xlink:href="#DejaVuSans-72" x="311.035156"/>
     <use xlink:href="#DejaVuSans-69" x="352.148438"/>
     <use xlink:href="#DejaVuSans-61" x="379.931641"/>
    </g>
   </g>
   <g id="text_4">
    <!-- Pesca (attività) -->
    <g transform="translate(602.322891 169.496645) rotate(-304.285714) scale(0.1 -0.1)">
     <defs>
      <path id="DejaVuSans-50" d="M 1259 4147 
L 1259 2394 
L 2053 2394 
Q 2494 2394 2734 2622 
Q 2975 2850 2975 3272 
Q 2975 3691 2734 3919 
Q 2494 4147 2053 4147 
L 1259 4147 
z
M 628 4666 
L 2053 4666 
Q 2838 4666 3239 4311 
Q 3641 3956 3641 3272 
Q 3641 2581 3239 2228 
Q 2838 1875 2053 1875 
L 1259 1875 
L 1259 0 
L 628 0 
L 628 4666 
z
" transform="scale(0.015625)"/>
      <path id="DejaVuSans-20" transform="scale(0.015625)"/>
      <path id="DejaVuSans-28" d="M 1984 4856 
Q 1566 4138 1362 3434 
Q 1159 2731 1159 2009 
Q 1159 1288 1364 580 
Q 1569 -128 1984 -844 
L 1484 -844 
Q 1016 -109 783 600 
Q 550 1309 550 2009 
Q 550 2706 781 3412 
Q 1013 4119 1484 4856 
L 1984 4856 
z
" transform="scale(0.015625)"/>
      <path id="DejaVuSans-e0" d="M 2194 1759 
Q 1497 1759 1228 1600 
Q 959 1441 959 1056 
Q 959 750 1161 570 
Q 1363 391 1709 391 
Q 2188 391 2477 730 
Q 2766 1069 2766 1631 
L 2766 1759 
L 2194 1759 
z
M 3341 1997 
L 3341 0 
L 2766 0 
L 2766 531 
Q 2569 213 2275 61 
Q 1981 -91 1556 -91 
Q 1019 -91 701 211 
Q 384 513 384 1019 
Q 384 1609 779 1909 
Q 1175 2209 1959 2209 
L 2766 2209 
L 2766 2266 
Q 2766 2663 2505 2880 
Q 2244 3097 1772 3097 
Q 1472 3097 1187 3025 
Q 903 2953 641 2809 
L 641 3341 
Q 956 3463 1253 3523 
Q 1550 3584 1831 3584 
Q 2591 3584 2966 3190 
Q 3341 2797 3341 1997 
z
M 1403 5119 
L 2284 3950 
L 1806 3950 
L 788 5119 
L 1403 5119 
z
" transform="scale(0.015625)"/>
      <path id="DejaVuSans-29" d="M 513 4856 
L 1013 4856 
Q 1481 4119 1714 3412 
Q 1947 2706 1947 2009 
Q 1947 1309 1714 600 
Q 1481 -109 1013 -844 
L 513 -844 
Q 928 -128 1133 580 
Q 1338 1288 1338 2009 
Q 1338 2731 1133 3434 
Q 928 4138 513 4856 
z
" transform="scale(0.015625)"/>
     </defs>
     <use xlink:href="#DejaVuSans-50"/>
     <use xlink:href="#DejaVuSans-65" x="56.677734"/>
     <use xlink:href="#DejaVuSans-73" x="118.201172"/>
     <use xlink:href="#DejaVuSans-63" x="170.300781"/>
     <use xlink:href="#DejaVuSans-61" x="225.28125"/>
     <use xlink:href="#DejaVuSans-20" x="286.560547"/>
     <use xlink:href="#DejaVuSans-28" x="318.347656"/>
     <use xlink:href="#DejaVuSans-61" x="357.361328"/>
     <use xlink:href="#DejaVuSans-74" x="418.640625"/>
     <use xlink:href="#DejaVuSans-74" x="457.849609"/>
     <use xlink:href="#DejaVuSans-69" x="497.058594"/>
     <use xlink:href="#DejaVuSans-76" x="524.841797"/>
     <use xlink:href="#DejaVuSans-69" x="584.021484"/>
     <use xlink:href="#DejaVuSans-74" x="611.804688"/>
     <use xlink:href="#DejaVuSans-e0" x="651.013672"/>
     <use xlink:href="#DejaVuSans-29" x="712.292969"/>
    </g>
   </g>
   <g id="text_5">
    <!-- Artigianato -->
    <g transform="translate(593.993176 212.454429) rotate(-312.857143) scale(0.1 -0.1)">
     <use xlink:href="#DejaVuSans-41"/>
     <use xlink:href="#DejaVuSans-72" x="68.408203"/>
     <use xlink:href="#DejaVuSans-74" x="109.521484"/>
     <use xlink:href="#DejaVuSans-69" x="148.730469"/>
     <use xlink:href="#DejaVuSans-67" x="176.513672"/>
     <use xlink:href="#DejaVuSans-69" x="239.990234"/>
     <use xlink:href="#DejaVuSans-61" x="267.773438"/>
     <use xlink:href="#DejaVuSans-6e" x="329.052734"/>
     <use xlink:href="#DejaVuSans-61" x="392.431641"/>
     <use xlink:href="#DejaVuSans-74" x="453.710938"/>
     <use xlink:href="#DejaVuSans-6f" x="492.919922"/>
    </g>
   </g>
   <g id="text_6">
    <!-- Italia -->
    <g transform="translate(483.247671 219.704926) rotate(-330) scale(0.1 -0.1)">
     <use xlink:href="#DejaVuSans-49"/>
     <use xlink:href="#DejaVuSans-74" x="29.492188"/>
     <use xlink:href="#DejaVuSans-61" x="68.701172"/>
     <use xlink:href="#DejaVuSans-6c" x="129.980469"/>
     <use xlink:href="#DejaVuSans-69" x="157.763672"/>
     <use xlink:href="#DejaVuSans-61" x="185.546875"/>
    </g>
   </g>
   <g id="text_7">
    <!-- Europa -->
    <g transform="translate(498.141314 272.426687) rotate(-338.571429) scale(0.1 -0.1)">
     <defs>
      <path id="DejaVuSans-45" d="M 628 4666 
L 3578 4666 
L 3578 4134 
L 1259 4134 
L 1259 2753 
L 3481 2753 
L 3481 2222 
L 1259 2222 
L 1259 531 
L 3634 531 
L 3634 0 
L 628 0 
L 628 4666 
z
" transform="scale(0.015625)"/>
      <path id="DejaVuSans-70" d="M 1159 525 
L 1159 -1331 
L 581 -1331 
L 581 3500 
L 1159 3500 
L 1159 2969 
Q 1341 3281 1617 3432 
Q 1894 3584 2278 3584 
Q 2916 3584 3314 3078 
Q 3713 2572 3713 1747 
Q 3713 922 3314 415 
Q 2916 -91 2278 -91 
Q 1894 -91 1617 61 
Q 1341 213 1159 525 
z
M 3116 1747 
Q 3116 2381 2855 2742 
Q 2594 3103 2138 3103 
Q 1681 3103 1420 2742 
Q 1159 2381 1159 1747 
Q 1159 1113 1420 752 
Q 1681 391 2138 391 
Q 2594 391 2855 752 
Q 3116 1113 3116 1747 
z
" transform="scale(0.015625)"/>
     </defs>
     <use xlink:href="#DejaVuSans-45"/>
     <use xlink:href="#DejaVuSans-75" x="63.183594"/>
     <use xlink:href="#DejaVuSans-72" x="126.5625"/>
     <use xlink:href="#DejaVuSans-6f" x="165.425781"/>
     <use xlink:href="#DejaVuSans-70" x="226.607422"/>
     <use xlink:href="#DejaVuSans-61" x="290.083984"/>
    </g>
   </g>
   <g id="text_8">
    <!-- Germania -->
    <g transform="translate(500.600983 312.245561) rotate(-347.142857) scale(0.1 -0.1)">
     <defs>
      <path id="DejaVuSans-47" d="M 3809 666 
L 3809 1919 
L 2778 1919 
L 2778 2438 
L 4434 2438 
L 4434 434 
Q 4069 175 3628 42 
Q 3188 -91 2688 -91 
Q 1594 -91 976 548 
Q 359 1188 359 2328 
Q 359 3472 976 4111 
Q 1594 4750 2688 4750 
Q 3144 4750 3555 4637 
Q 3966 4525 4313 4306 
L 4313 3634 
Q 3963 3931 3569 4081 
Q 3175 4231 2741 4231 
Q 1884 4231 1454 3753 
Q 1025 3275 1025 2328 
Q 1025 1384 1454 906 
Q 1884 428 2741 428 
Q 3075 428 3337 486 
Q 3600 544 3809 666 
z
" transform="scale(0.015625)"/>
     </defs>
     <use xlink:href="#DejaVuSans-47"/>
     <use xlink:href="#DejaVuSans-65" x="77.490234"/>
     <use xlink:href="#DejaVuSans-72" x="139.013672"/>
     <use xlink:href="#DejaVuSans-6d" x="178.376953"/>
     <use xlink:href="#DejaVuSans-61" x="275.789062"/>
     <use xlink:href="#DejaVuSans-6e" x="337.068359"/>
     <use xlink:href="#DejaVuSans-69" x="400.447266"/>
     <use xlink:href="#DejaVuSans-61" x="428.230469"/>
    </g>
   </g>
   <g id="text_9">
    <!-- Francia -->
    <g transform="translate(511.43891 349.388706) rotate(-355.714286) scale(0.1 -0.1)">
     <defs>
      <path id="DejaVuSans-46" d="M 628 4666 
L 3309 4666 
L 3309 4134 
L 1259 4134 
L 1259 2759 
L 3109 2759 
L 3109 2228 
L 1259 2228 
L 1259 0 
L 628 0 
L 628 4666 
z
" transform="scale(0.015625)"/>
     </defs>
     <use xlink:href="#DejaVuSans-46"/>
     <use xlink:href="#DejaVuSans-72" x="50.269531"/>
     <use xlink:href="#DejaVuSans-61" x="91.382812"/>
     <use xlink:href="#DejaVuSans-6e" x="152.662109"/>
     <use xlink:href="#DejaVuSans-63" x="216.041016"/>
     <use xlink:href="#DejaVuSans-69" x="271.021484"/>
     <use xlink:href="#DejaVuSans-61" x="298.804688"/>
    </g>
   </g>
   <g id="text_10">
    <!-- Spagna -->
    <g transform="translate(535.430637 381.547588) rotate(-4.285714) scale(0.1 -0.1)">
     <defs>
      <path id="DejaVuSans-53" d="M 3425 4513 
L 3425 3897 
Q 3066 4069 2747 4153 
Q 2428 4238 2131 4238 
Q 1616 4238 1336 4038 
Q 1056 3838 1056 3469 
Q 1056 3159 1242 3001 
Q 1428 2844 1947 2747 
L 2328 2669 
Q 3034 2534 3370 2195 
Q 3706 1856 3706 1288 
Q 3706 609 3251 259 
Q 2797 -91 1919 -91 
Q 1588 -91 1214 -16 
Q 841 59 441 206 
L 441 856 
Q 825 641 1194 531 
Q 1563 422 1919 422 
Q 2459 422 2753 634 
Q 3047 847 3047 1241 
Q 3047 1584 2836 1778 
Q 2625 1972 2144 2069 
L 1759 2144 
Q 1053 2284 737 2584 
Q 422 2884 422 3419 
Q 422 4038 858 4394 
Q 1294 4750 2059 4750 
Q 2388 4750 2728 4690 
Q 3069 4631 3425 4513 
z
" transform="scale(0.015625)"/>
     </defs>
     <use xlink:href="#DejaVuSans-53"/>
     <use xlink:href="#DejaVuSans-70" x="63.476562"/>
     <use xlink:href="#DejaVuSans-61" x="126.953125"/>
     <use xlink:href="#DejaVuSans-67" x="188.232422"/>
     <use xlink:href="#DejaVuSans-6e" x="251.708984"/>
     <use xlink:href="#DejaVuSans-61" x="315.087891"/>
    </g>
   </g>
   <g id="text_11">
    <!-- Dio -->
    <g transform="translate(506.103843 457.57682) rotate(-21.428571) scale(0.1 -0.1)">
     <defs>
      <path id="DejaVuSans-44" d="M 1259 4147 
L 1259 519 
L 2022 519 
Q 2988 519 3436 956 
Q 3884 1394 3884 2338 
Q 3884 3275 3436 3711 
Q 2988 4147 2022 4147 
L 1259 4147 
z
M 628 4666 
L 1925 4666 
Q 3281 4666 3915 4102 
Q 4550 3538 4550 2338 
Q 4550 1131 3912 565 
Q 3275 0 1925 0 
L 628 0 
L 628 4666 
z
" transform="scale(0.015625)"/>
     </defs>
     <use xlink:href="#DejaVuSans-44"/>
     <use xlink:href="#DejaVuSans-69" x="77.001953"/>
     <use xlink:href="#DejaVuSans-6f" x="104.785156"/>
    </g>
   </g>
   <g id="text_12">
    <!-- Verità -->
    <g transform="translate(563.693755 467.422009) rotate(-30) scale(0.1 -0.1)">
     <defs>
      <path id="DejaVuSans-56" d="M 1831 0 
L 50 4666 
L 709 4666 
L 2188 738 
L 3669 4666 
L 4325 4666 
L 2547 0 
L 1831 0 
z
" transform="scale(0.015625)"/>
     </defs>
     <use xlink:href="#DejaVuSans-56"/>
     <use xlink:href="#DejaVuSans-65" x="60.658203"/>
     <use xlink:href="#DejaVuSans-72" x="122.181641"/>
     <use xlink:href="#DejaVuSans-69" x="163.294922"/>
     <use xlink:href="#DejaVuSans-74" x="191.078125"/>
     <use xlink:href="#DejaVuSans-e0" x="230.287109"/>
    </g>
   </g>
   <g id="text_13">
    <!-- Libertà -->
    <g transform="translate(577.65642 494.999111) rotate(-38.571429) scale(0.1 -0.1)">
     <defs>
      <path id="DejaVuSans-4c" d="M 628 4666 
L 1259 4666 
L 1259 531 
L 3531 531 
L 3531 0 
L 628 0 
L 628 4666 
z
" transform="scale(0.015625)"/>
      <path id="DejaVuSans-62" d="M 3116 1747 
Q 3116 2381 2855 2742 
Q 2594 3103 2138 3103 
Q 1681 3103 1420 2742 
Q 1159 2381 1159 1747 
Q 1159 1113 1420 752 
Q 1681 391 2138 391 
Q 2594 391 2855 752 
Q 3116 1113 3116 1747 
z
M 1159 2969 
Q 1341 3281 1617 3432 
Q 1894 3584 2278 3584 
Q 2916 3584 3314 3078 
Q 3713 2572 3713 1747 
Q 3713 922 3314 415 
Q 2916 -91 2278 -91 
Q 1894 -91 1617 61 
Q 1341 213 1159 525 
L 1159 0 
L 581 0 
L 581 4863 
L 1159 4863 
L 1159 2969 
z
" transform="scale(0.015625)"/>
     </defs>
     <use xlink:href="#DejaVuSans-4c"/>
     <use xlink:href="#DejaVuSans-69" x="55.712891"/>
     <use xlink:href="#DejaVuSans-62" x="83.496094"/>
     <use xlink:href="#DejaVuSans-65" x="146.972656"/>
     <use xlink:href="#DejaVuSans-72" x="208.496094"/>
     <use xlink:href="#DejaVuSans-74" x="249.609375"/>
     <use xlink:href="#DejaVuSans-e0" x="288.818359"/>
    </g>
   </g>
   <g id="text_14">
    <!-- Giustizia -->
    <g transform="translate(597.465091 519.117484) rotate(-47.142857) scale(0.1 -0.1)">
     <defs>
      <path id="DejaVuSans-7a" d="M 353 3500 
L 3084 3500 
L 3084 2975 
L 922 459 
L 3084 459 
L 3084 0 
L 275 0 
L 275 525 
L 2438 3041 
L 353 3041 
L 353 3500 
z
" transform="scale(0.015625)"/>
     </defs>
     <use xlink:href="#DejaVuSans-47"/>
     <use xlink:href="#DejaVuSans-69" x="77.490234"/>
     <use xlink:href="#DejaVuSans-75" x="105.273438"/>
     <use xlink:href="#DejaVuSans-73" x="168.652344"/>
     <use xlink:href="#DejaVuSans-74" x="220.751953"/>
     <use xlink:href="#DejaVuSans-69" x="259.960938"/>
     <use xlink:href="#DejaVuSans-7a" x="287.744141"/>
     <use xlink:href="#DejaVuSans-69" x="340.234375"/>
     <use xlink:href="#DejaVuSans-61" x="368.017578"/>
    </g>
   </g>
   <g id="text_15">
    <!-- Coraggio -->
    <g transform="translate(622.400201 538.052178) rotate(-55.714286) scale(0.1 -0.1)">
     <defs>
      <path id="DejaVuSans-43" d="M 4122 4306 
L 4122 3641 
Q 3803 3938 3442 4084 
Q 3081 4231 2675 4231 
Q 1875 4231 1450 3742 
Q 1025 3253 1025 2328 
Q 1025 1406 1450 917 
Q 1875 428 2675 428 
Q 3081 428 3442 575 
Q 3803 722 4122 1019 
L 4122 359 
Q 3791 134 3420 21 
Q 3050 -91 2638 -91 
Q 1578 -91 968 557 
Q 359 1206 359 2328 
Q 359 3453 968 4101 
Q 1578 4750 2638 4750 
Q 3056 4750 3426 4639 
Q 3797 4528 4122 4306 
z
" transform="scale(0.015625)"/>
     </defs>
     <use xlink:href="#DejaVuSans-43"/>
     <use xlink:href="#DejaVuSans-6f" x="69.824219"/>
     <use xlink:href="#DejaVuSans-72" x="131.005859"/>
     <use xlink:href="#DejaVuSans-61" x="172.119141"/>
     <use xlink:href="#DejaVuSans-67" x="233.398438"/>
     <use xlink:href="#DejaVuSans-67" x="296.875"/>
     <use xlink:href="#DejaVuSans-69" x="360.351562"/>
     <use xlink:href="#DejaVuSans-6f" x="388.134766"/>
    </g>
   </g>
   <g id="text_16">
    <!-- Politica -->
    <g transform="translate(670.179287 592.830934) rotate(-72.857143) scale(0.1 -0.1)">
     <use xlink:href="#DejaVuSans-50"/>
     <use xlink:href="#DejaVuSans-6f" x="56.677734"/>
     <use xlink:href="#DejaVuSans-6c" x="117.859375"/>
     <use xlink:href="#DejaVuSans-69" x="145.642578"/>
     <use xlink:href="#DejaVuSans-74" x="173.425781"/>
     <use xlink:href="#DejaVuSans-69" x="212.634766"/>
     <use xlink:href="#DejaVuSans-63" x="240.417969"/>
     <use xlink:href="#DejaVuSans-61" x="295.398438"/>
    </g>
   </g>
   <g id="text_17">
    <!-- Lavoro -->
    <g transform="translate(707.44621 584.825192) rotate(-81.428571) scale(0.1 -0.1)">
     <use xlink:href="#DejaVuSans-4c"/>
     <use xlink:href="#DejaVuSans-61" x="55.712891"/>
     <use xlink:href="#DejaVuSans-76" x="116.992188"/>
     <use xlink:href="#DejaVuSans-6f" x="176.171875"/>
     <use xlink:href="#DejaVuSans-72" x="237.353516"/>
     <use xlink:href="#DejaVuSans-6f" x="276.216797"/>
    </g>
   </g>
   <g id="text_18">
    <!-- Famiglia -->
    <g transform="translate(740.759375 580.036944) rotate(-90) scale(0.1 -0.1)">
     <use xlink:href="#DejaVuSans-46"/>
     <use xlink:href="#DejaVuSans-61" x="48.394531"/>
     <use xlink:href="#DejaVuSans-6d" x="109.673828"/>
     <use xlink:href="#DejaVuSans-69" x="207.085938"/>
     <use xlink:href="#DejaVuSans-67" x="234.869141"/>
     <use xlink:href="#DejaVuSans-6c" x="298.345703"/>
     <use xlink:href="#DejaVuSans-69" x="326.128906"/>
     <use xlink:href="#DejaVuSans-61" x="353.912109"/>
    </g>
   </g>
   <g id="text_19">
    <!-- Tradizione -->
    <g transform="translate(761.290191 536.634363) rotate(-278.571429) scale(0.1 -0.1)">
     <defs>
      <path id="DejaVuSans-54" d="M -19 4666 
L 3928 4666 
L 3928 4134 
L 2272 4134 
L 2272 0 
L 1638 0 
L 1638 4134 
L -19 4134 
L -19 4666 
z
" transform="scale(0.015625)"/>
     </defs>
     <use xlink:href="#DejaVuSans-54"/>
     <use xlink:href="#DejaVuSans-72" x="46.333984"/>
     <use xlink:href="#DejaVuSans-61" x="87.447266"/>
     <use xlink:href="#DejaVuSans-64" x="148.726562"/>
     <use xlink:href="#DejaVuSans-69" x="212.203125"/>
     <use xlink:href="#DejaVuSans-7a" x="239.986328"/>
     <use xlink:href="#DejaVuSans-69" x="292.476562"/>
     <use xlink:href="#DejaVuSans-6f" x="320.259766"/>
     <use xlink:href="#DejaVuSans-6e" x="381.441406"/>
     <use xlink:href="#DejaVuSans-65" x="444.820312"/>
    </g>
   </g>
   <g id="text_20">
    <!-- Società -->
    <g transform="translate(784.179336 522.671314) rotate(-287.142857) scale(0.1 -0.1)">
     <use xlink:href="#DejaVuSans-53"/>
     <use xlink:href="#DejaVuSans-6f" x="63.476562"/>
     <use xlink:href="#DejaVuSans-63" x="124.658203"/>
     <use xlink:href="#DejaVuSans-69" x="179.638672"/>
     <use xlink:href="#DejaVuSans-65" x="207.421875"/>
     <use xlink:href="#DejaVuSans-74" x="268.945312"/>
     <use xlink:href="#DejaVuSans-e0" x="308.154297"/>
    </g>
   </g>
   <g id="text_21">
    <!-- Suolo -->
    <g transform="translate(843.568334 523.338722) rotate(-304.285714) scale(0.1 -0.1)">
     <use xlink:href="#DejaVuSans-53"/>
     <use xlink:href="#DejaVuSans-75" x="63.476562"/>
     <use xlink:href="#DejaVuSans-6f" x="126.855469"/>
     <use xlink:href="#DejaVuSans-6c" x="188.037109"/>
     <use xlink:href="#DejaVuSans-6f" x="215.820312"/>
    </g>
   </g>
   <g id="text_22">
    <!-- Alimento -->
    <g transform="translate(861.064767 500.289149) rotate(-312.857143) scale(0.1 -0.1)">
     <use xlink:href="#DejaVuSans-41"/>
     <use xlink:href="#DejaVuSans-6c" x="68.408203"/>
     <use xlink:href="#DejaVuSans-69" x="96.191406"/>
     <use xlink:href="#DejaVuSans-6d" x="123.974609"/>
     <use xlink:href="#DejaVuSans-65" x="221.386719"/>
     <use xlink:href="#DejaVuSans-6e" x="282.910156"/>
     <use xlink:href="#DejaVuSans-74" x="346.289062"/>
     <use xlink:href="#DejaVuSans-6f" x="385.498047"/>
    </g>
   </g>
   <g id="text_23">
    <!-- Letame -->
    <g transform="translate(878.770456 479.390066) rotate(-321.428571) scale(0.1 -0.1)">
     <use xlink:href="#DejaVuSans-4c"/>
     <use xlink:href="#DejaVuSans-65" x="53.962891"/>
     <use xlink:href="#DejaVuSans-74" x="115.486328"/>
     <use xlink:href="#DejaVuSans-61" x="154.695312"/>
     <use xlink:href="#DejaVuSans-6d" x="215.974609"/>
     <use xlink:href="#DejaVuSans-65" x="313.386719"/>
    </g>
   </g>
   <g id="text_24">
    <!-- Grano -->
    <g transform="translate(893.027936 456.291673) rotate(-330) scale(0.1 -0.1)">
     <use xlink:href="#DejaVuSans-47"/>
     <use xlink:href="#DejaVuSans-72" x="77.490234"/>
     <use xlink:href="#DejaVuSans-61" x="118.603516"/>
     <use xlink:href="#DejaVuSans-6e" x="179.882812"/>
     <use xlink:href="#DejaVuSans-6f" x="243.261719"/>
    </g>
   </g>
   <g id="text_25">
    <!-- Trattore agricolo -->
    <g transform="translate(901.566638 430.75946) rotate(-338.571429) scale(0.1 -0.1)">
     <use xlink:href="#DejaVuSans-54"/>
     <use xlink:href="#DejaVuSans-72" x="46.333984"/>
     <use xlink:href="#DejaVuSans-61" x="87.447266"/>
     <use xlink:href="#DejaVuSans-74" x="148.726562"/>
     <use xlink:href="#DejaVuSans-74" x="187.935547"/>
     <use xlink:href="#DejaVuSans-6f" x="227.144531"/>
     <use xlink:href="#DejaVuSans-72" x="288.326172"/>
     <use xlink:href="#DejaVuSans-65" x="327.189453"/>
     <use xlink:href="#DejaVuSans-20" x="388.712891"/>
     <use xlink:href="#DejaVuSans-61" x="420.5"/>
     <use xlink:href="#DejaVuSans-67" x="481.779297"/>
     <use xlink:href="#DejaVuSans-72" x="545.255859"/>
     <use xlink:href="#DejaVuSans-69" x="586.369141"/>
     <use xlink:href="#DejaVuSans-63" x="614.152344"/>
     <use xlink:href="#DejaVuSans-6f" x="669.132812"/>
     <use xlink:href="#DejaVuSans-6c" x="730.314453"/>
     <use xlink:href="#DejaVuSans-6f" x="758.097656"/>
    </g>
   </g>
   <g id="text_26">
    <!-- Unione europea -->
    <g transform="translate(938.838756 381.417896) rotate(-355.714286) scale(0.1 -0.1)">
     <defs>
      <path id="DejaVuSans-55" d="M 556 4666 
L 1191 4666 
L 1191 1831 
Q 1191 1081 1462 751 
Q 1734 422 2344 422 
Q 2950 422 3222 751 
Q 3494 1081 3494 1831 
L 3494 4666 
L 4128 4666 
L 4128 1753 
Q 4128 841 3676 375 
Q 3225 -91 2344 -91 
Q 1459 -91 1007 375 
Q 556 841 556 1753 
L 556 4666 
z
" transform="scale(0.015625)"/>
     </defs>
     <use xlink:href="#DejaVuSans-55"/>
     <use xlink:href="#DejaVuSans-6e" x="73.193359"/>
     <use xlink:href="#DejaVuSans-69" x="136.572266"/>
     <use xlink:href="#DejaVuSans-6f" x="164.355469"/>
     <use xlink:href="#DejaVuSans-6e" x="225.537109"/>
     <use xlink:href="#DejaVuSans-65" x="288.916016"/>
     <use xlink:href="#DejaVuSans-20" x="350.439453"/>
     <use xlink:href="#DejaVuSans-65" x="382.226562"/>
     <use xlink:href="#DejaVuSans-75" x="443.75"/>
     <use xlink:href="#DejaVuSans-72" x="507.128906"/>
     <use xlink:href="#DejaVuSans-6f" x="545.992188"/>
     <use xlink:href="#DejaVuSans-70" x="607.173828"/>
     <use xlink:href="#DejaVuSans-65" x="670.650391"/>
     <use xlink:href="#DejaVuSans-61" x="732.173828"/>
    </g>
   </g>
   <g id="text_27">
    <!-- Sindacato -->
    <g transform="translate(932.522333 351.789679) rotate(-4.285714) scale(0.1 -0.1)">
     <use xlink:href="#DejaVuSans-53"/>
     <use xlink:href="#DejaVuSans-69" x="63.476562"/>
     <use xlink:href="#DejaVuSans-6e" x="91.259766"/>
     <use xlink:href="#DejaVuSans-64" x="154.638672"/>
     <use xlink:href="#DejaVuSans-61" x="218.115234"/>
     <use xlink:href="#DejaVuSans-63" x="279.394531"/>
     <use xlink:href="#DejaVuSans-61" x="334.375"/>
     <use xlink:href="#DejaVuSans-74" x="395.654297"/>
     <use xlink:href="#DejaVuSans-6f" x="434.863281"/>
    </g>
   </g>
   <g id="text_28">
    <!-- Coldiretti -->
    <g transform="translate(916.419921 325.707155) rotate(-12.857143) scale(0.1 -0.1)">
     <use xlink:href="#DejaVuSans-43"/>
     <use xlink:href="#DejaVuSans-6f" x="69.824219"/>
     <use xlink:href="#DejaVuSans-6c" x="131.005859"/>
     <use xlink:href="#DejaVuSans-64" x="158.789062"/>
     <use xlink:href="#DejaVuSans-69" x="222.265625"/>
     <use xlink:href="#DejaVuSans-72" x="250.048828"/>
     <use xlink:href="#DejaVuSans-65" x="288.912109"/>
     <use xlink:href="#DejaVuSans-74" x="350.435547"/>
     <use xlink:href="#DejaVuSans-74" x="389.644531"/>
     <use xlink:href="#DejaVuSans-69" x="428.853516"/>
    </g>
   </g>
   <g id="text_29">
    <!-- Multinazionale -->
    <g transform="translate(904.340148 301.280588) rotate(-21.428571) scale(0.1 -0.1)">
     <defs>
      <path id="DejaVuSans-4d" d="M 628 4666 
L 1569 4666 
L 2759 1491 
L 3956 4666 
L 4897 4666 
L 4897 0 
L 4281 0 
L 4281 4097 
L 3078 897 
L 2444 897 
L 1241 4097 
L 1241 0 
L 628 0 
L 628 4666 
z
" transform="scale(0.015625)"/>
     </defs>
     <use xlink:href="#DejaVuSans-4d"/>
     <use xlink:href="#DejaVuSans-75" x="86.279297"/>
     <use xlink:href="#DejaVuSans-6c" x="149.658203"/>
     <use xlink:href="#DejaVuSans-74" x="177.441406"/>
     <use xlink:href="#DejaVuSans-69" x="216.650391"/>
     <use xlink:href="#DejaVuSans-6e" x="244.433594"/>
     <use xlink:href="#DejaVuSans-61" x="307.8125"/>
     <use xlink:href="#DejaVuSans-7a" x="369.091797"/>
     <use xlink:href="#DejaVuSans-69" x="421.582031"/>
     <use xlink:href="#DejaVuSans-6f" x="449.365234"/>
     <use xlink:href="#DejaVuSans-6e" x="510.546875"/>
     <use xlink:href="#DejaVuSans-61" x="573.925781"/>
     <use xlink:href="#DejaVuSans-6c" x="635.205078"/>
     <use xlink:href="#DejaVuSans-65" x="662.988281"/>
    </g>
   </g>
   <g id="text_30">
    <!-- Corruzione -->
    <g transform="translate(887.54877 280.444229) rotate(-30) scale(0.1 -0.1)">
     <use xlink:href="#DejaVuSans-43"/>
     <use xlink:href="#DejaVuSans-6f" x="69.824219"/>
     <use xlink:href="#DejaVuSans-72" x="131.005859"/>
     <use xlink:href="#DejaVuSans-72" x="170.369141"/>
     <use xlink:href="#DejaVuSans-75" x="211.482422"/>
     <use xlink:href="#DejaVuSans-7a" x="274.861328"/>
     <use xlink:href="#DejaVuSans-69" x="327.351562"/>
     <use xlink:href="#DejaVuSans-6f" x="355.134766"/>
     <use xlink:href="#DejaVuSans-6e" x="416.316406"/>
     <use xlink:href="#DejaVuSans-65" x="479.695312"/>
    </g>
   </g>
   <g id="text_31">
    <!-- Roma -->
    <g transform="translate(887.276982 206.774549) rotate(-47.142857) scale(0.1 -0.1)">
     <defs>
      <path id="DejaVuSans-52" d="M 2841 2188 
Q 3044 2119 3236 1894 
Q 3428 1669 3622 1275 
L 4263 0 
L 3584 0 
L 2988 1197 
Q 2756 1666 2539 1819 
Q 2322 1972 1947 1972 
L 1259 1972 
L 1259 0 
L 628 0 
L 628 4666 
L 2053 4666 
Q 2853 4666 3247 4331 
Q 3641 3997 3641 3322 
Q 3641 2881 3436 2590 
Q 3231 2300 2841 2188 
z
M 1259 4147 
L 1259 2491 
L 2053 2491 
Q 2509 2491 2742 2702 
Q 2975 2913 2975 3322 
Q 2975 3731 2742 3939 
Q 2509 4147 2053 4147 
L 1259 4147 
z
" transform="scale(0.015625)"/>
     </defs>
     <use xlink:href="#DejaVuSans-52"/>
     <use xlink:href="#DejaVuSans-6f" x="64.982422"/>
     <use xlink:href="#DejaVuSans-6d" x="126.164062"/>
     <use xlink:href="#DejaVuSans-61" x="223.576172"/>
    </g>
   </g>
   <g id="text_32">
    <!-- Bruxelles -->
    <g transform="translate(846.487867 209.375938) rotate(-55.714286) scale(0.1 -0.1)">
     <defs>
      <path id="DejaVuSans-42" d="M 1259 2228 
L 1259 519 
L 2272 519 
Q 2781 519 3026 730 
Q 3272 941 3272 1375 
Q 3272 1813 3026 2020 
Q 2781 2228 2272 2228 
L 1259 2228 
z
M 1259 4147 
L 1259 2741 
L 2194 2741 
Q 2656 2741 2882 2914 
Q 3109 3088 3109 3444 
Q 3109 3797 2882 3972 
Q 2656 4147 2194 4147 
L 1259 4147 
z
M 628 4666 
L 2241 4666 
Q 2963 4666 3353 4366 
Q 3744 4066 3744 3513 
Q 3744 3084 3544 2831 
Q 3344 2578 2956 2516 
Q 3422 2416 3680 2098 
Q 3938 1781 3938 1306 
Q 3938 681 3513 340 
Q 3088 0 2303 0 
L 628 0 
L 628 4666 
z
" transform="scale(0.015625)"/>
      <path id="DejaVuSans-78" d="M 3513 3500 
L 2247 1797 
L 3578 0 
L 2900 0 
L 1881 1375 
L 863 0 
L 184 0 
L 1544 1831 
L 300 3500 
L 978 3500 
L 1906 2253 
L 2834 3500 
L 3513 3500 
z
" transform="scale(0.015625)"/>
     </defs>
     <use xlink:href="#DejaVuSans-42"/>
     <use xlink:href="#DejaVuSans-72" x="68.603516"/>
     <use xlink:href="#DejaVuSans-75" x="109.716797"/>
     <use xlink:href="#DejaVuSans-78" x="173.095703"/>
     <use xlink:href="#DejaVuSans-65" x="229.150391"/>
     <use xlink:href="#DejaVuSans-6c" x="290.673828"/>
     <use xlink:href="#DejaVuSans-6c" x="318.457031"/>
     <use xlink:href="#DejaVuSans-65" x="346.240234"/>
     <use xlink:href="#DejaVuSans-73" x="407.763672"/>
    </g>
   </g>
   <g id="text_33">
    <!-- Provincia di Siena -->
    <g transform="translate(815.599066 208.82359) rotate(-64.285714) scale(0.1 -0.1)">
     <use xlink:href="#DejaVuSans-50"/>
     <use xlink:href="#DejaVuSans-72" x="58.552734"/>
     <use xlink:href="#DejaVuSans-6f" x="97.416016"/>
     <use xlink:href="#DejaVuSans-76" x="158.597656"/>
     <use xlink:href="#DejaVuSans-69" x="217.777344"/>
     <use xlink:href="#DejaVuSans-6e" x="245.560547"/>
     <use xlink:href="#DejaVuSans-63" x="308.939453"/>
     <use xlink:href="#DejaVuSans-69" x="363.919922"/>
     <use xlink:href="#DejaVuSans-61" x="391.703125"/>
     <use xlink:href="#DejaVuSans-20" x="452.982422"/>
     <use xlink:href="#DejaVuSans-64" x="484.769531"/>
     <use xlink:href="#DejaVuSans-69" x="548.246094"/>
     <use xlink:href="#DejaVuSans-20" x="576.029297"/>
     <use xlink:href="#DejaVuSans-53" x="607.816406"/>
     <use xlink:href="#DejaVuSans-69" x="671.292969"/>
     <use xlink:href="#DejaVuSans-65" x="699.076172"/>
     <use xlink:href="#DejaVuSans-6e" x="760.599609"/>
     <use xlink:href="#DejaVuSans-61" x="823.978516"/>
    </g>
   </g>
   <g id="text_34">
    <!-- Sicilia -->
    <g transform="translate(791.202145 200.484466) rotate(-72.857143) scale(0.1 -0.1)">
     <use xlink:href="#DejaVuSans-53"/>
     <use xlink:href="#DejaVuSans-69" x="63.476562"/>
     <use xlink:href="#DejaVuSans-63" x="91.259766"/>
     <use xlink:href="#DejaVuSans-69" x="146.240234"/>
     <use xlink:href="#DejaVuSans-6c" x="174.023438"/>
     <use xlink:href="#DejaVuSans-69" x="201.806641"/>
     <use xlink:href="#DejaVuSans-61" x="229.589844"/>
    </g>
   </g>
   <g id="text_35">
    <!-- Sanremo -->
    <g transform="translate(765.39895 200.333887) rotate(-81.428571) scale(0.1 -0.1)">
     <use xlink:href="#DejaVuSans-53"/>
     <use xlink:href="#DejaVuSans-61" x="63.476562"/>
     <use xlink:href="#DejaVuSans-6e" x="124.755859"/>
     <use xlink:href="#DejaVuSans-72" x="188.134766"/>
     <use xlink:href="#DejaVuSans-65" x="226.998047"/>
     <use xlink:href="#DejaVuSans-6d" x="288.521484"/>
     <use xlink:href="#DejaVuSans-6f" x="385.933594"/>
    </g>
   </g>
   <g id="text_36">
    <!-- 7060 -->
    <g transform="translate(713.016588 208.95432) rotate(-278.571429) scale(0.06 -0.06)">
     <defs>
      <path id="DejaVuSans-37" d="M 525 4666 
L 3525 4666 
L 3525 4397 
L 1831 0 
L 1172 0 
L 2766 4134 
L 525 4134 
L 525 4666 
z
" transform="scale(0.015625)"/>
      <path id="DejaVuSans-30" d="M 2034 4250 
Q 1547 4250 1301 3770 
Q 1056 3291 1056 2328 
Q 1056 1369 1301 889 
Q 1547 409 2034 409 
Q 2525 409 2770 889 
Q 3016 1369 3016 2328 
Q 3016 3291 2770 3770 
Q 2525 4250 2034 4250 
z
M 2034 4750 
Q 2819 4750 3233 4129 
Q 3647 3509 3647 2328 
Q 3647 1150 3233 529 
Q 2819 -91 2034 -91 
Q 1250 -91 836 529 
Q 422 1150 422 2328 
Q 422 3509 836 4129 
Q 1250 4750 2034 4750 
z
" transform="scale(0.015625)"/>
      <path id="DejaVuSans-36" d="M 2113 2584 
Q 1688 2584 1439 2293 
Q 1191 2003 1191 1497 
Q 1191 994 1439 701 
Q 1688 409 2113 409 
Q 2538 409 2786 701 
Q 3034 994 3034 1497 
Q 3034 2003 2786 2293 
Q 2538 2584 2113 2584 
z
M 3366 4563 
L 3366 3988 
Q 3128 4100 2886 4159 
Q 2644 4219 2406 4219 
Q 1781 4219 1451 3797 
Q 1122 3375 1075 2522 
Q 1259 2794 1537 2939 
Q 1816 3084 2150 3084 
Q 2853 3084 3261 2657 
Q 3669 2231 3669 1497 
Q 3669 778 3244 343 
Q 2819 -91 2113 -91 
Q 1303 -91 875 529 
Q 447 1150 447 2328 
Q 447 3434 972 4092 
Q 1497 4750 2381 4750 
Q 2619 4750 2861 4703 
Q 3103 4656 3366 4563 
z
" transform="scale(0.015625)"/>
     </defs>
     <use xlink:href="#DejaVuSans-37"/>
     <use xlink:href="#DejaVuSans-30" x="63.623047"/>
     <use xlink:href="#DejaVuSans-36" x="127.246094"/>
     <use xlink:href="#DejaVuSans-30" x="190.869141"/>
    </g>
   </g>
   <g id="text_37">
    <!-- 435 -->
    <g transform="translate(691.372118 218.053068) rotate(-287.142857) scale(0.06 -0.06)">
     <defs>
      <path id="DejaVuSans-34" d="M 2419 4116 
L 825 1625 
L 2419 1625 
L 2419 4116 
z
M 2253 4666 
L 3047 4666 
L 3047 1625 
L 3713 1625 
L 3713 1100 
L 3047 1100 
L 3047 0 
L 2419 0 
L 2419 1100 
L 313 1100 
L 313 1709 
L 2253 4666 
z
" transform="scale(0.015625)"/>
      <path id="DejaVuSans-33" d="M 2597 2516 
Q 3050 2419 3304 2112 
Q 3559 1806 3559 1356 
Q 3559 666 3084 287 
Q 2609 -91 1734 -91 
Q 1441 -91 1130 -33 
Q 819 25 488 141 
L 488 750 
Q 750 597 1062 519 
Q 1375 441 1716 441 
Q 2309 441 2620 675 
Q 2931 909 2931 1356 
Q 2931 1769 2642 2001 
Q 2353 2234 1838 2234 
L 1294 2234 
L 1294 2753 
L 1863 2753 
Q 2328 2753 2575 2939 
Q 2822 3125 2822 3475 
Q 2822 3834 2567 4026 
Q 2313 4219 1838 4219 
Q 1578 4219 1281 4162 
Q 984 4106 628 3988 
L 628 4550 
Q 988 4650 1302 4700 
Q 1616 4750 1894 4750 
Q 2613 4750 3031 4423 
Q 3450 4097 3450 3541 
Q 3450 3153 3228 2886 
Q 3006 2619 2597 2516 
z
" transform="scale(0.015625)"/>
      <path id="DejaVuSans-35" d="M 691 4666 
L 3169 4666 
L 3169 4134 
L 1269 4134 
L 1269 2991 
Q 1406 3038 1543 3061 
Q 1681 3084 1819 3084 
Q 2600 3084 3056 2656 
Q 3513 2228 3513 1497 
Q 3513 744 3044 326 
Q 2575 -91 1722 -91 
Q 1428 -91 1123 -41 
Q 819 9 494 109 
L 494 744 
Q 775 591 1075 516 
Q 1375 441 1709 441 
Q 2250 441 2565 725 
Q 2881 1009 2881 1497 
Q 2881 1984 2565 2268 
Q 2250 2553 1709 2553 
Q 1456 2553 1204 2497 
Q 953 2441 691 2322 
L 691 4666 
z
" transform="scale(0.015625)"/>
     </defs>
     <use xlink:href="#DejaVuSans-34"/>
     <use xlink:href="#DejaVuSans-33" x="63.623047"/>
     <use xlink:href="#DejaVuSans-35" x="127.246094"/>
    </g>
   </g>
   <g id="text_38">
    <!-- 217 -->
    <g transform="translate(670.200268 226.628232) rotate(-295.714286) scale(0.06 -0.06)">
     <defs>
      <path id="DejaVuSans-32" d="M 1228 531 
L 3431 531 
L 3431 0 
L 469 0 
L 469 531 
Q 828 903 1448 1529 
Q 2069 2156 2228 2338 
Q 2531 2678 2651 2914 
Q 2772 3150 2772 3378 
Q 2772 3750 2511 3984 
Q 2250 4219 1831 4219 
Q 1534 4219 1204 4116 
Q 875 4013 500 3803 
L 500 4441 
Q 881 4594 1212 4672 
Q 1544 4750 1819 4750 
Q 2544 4750 2975 4387 
Q 3406 4025 3406 3419 
Q 3406 3131 3298 2873 
Q 3191 2616 2906 2266 
Q 2828 2175 2409 1742 
Q 1991 1309 1228 531 
z
" transform="scale(0.015625)"/>
      <path id="DejaVuSans-31" d="M 794 531 
L 1825 531 
L 1825 4091 
L 703 3866 
L 703 4441 
L 1819 4666 
L 2450 4666 
L 2450 531 
L 3481 531 
L 3481 0 
L 794 0 
L 794 531 
z
" transform="scale(0.015625)"/>
     </defs>
     <use xlink:href="#DejaVuSans-32"/>
     <use xlink:href="#DejaVuSans-31" x="63.623047"/>
     <use xlink:href="#DejaVuSans-37" x="127.246094"/>
    </g>
   </g>
   <g id="text_39">
    <!-- 160 -->
    <g transform="translate(650.542952 238.263119) rotate(-304.285714) scale(0.06 -0.06)">
     <use xlink:href="#DejaVuSans-31"/>
     <use xlink:href="#DejaVuSans-36" x="63.623047"/>
     <use xlink:href="#DejaVuSans-30" x="127.246094"/>
    </g>
   </g>
   <g id="text_40">
    <!-- 44 -->
    <g transform="translate(635.435842 255.496251) rotate(-312.857143) scale(0.06 -0.06)">
     <use xlink:href="#DejaVuSans-34"/>
     <use xlink:href="#DejaVuSans-34" x="63.623047"/>
    </g>
   </g>
   <g id="text_41">
    <!-- 7971 -->
    <g transform="translate(601.516236 286.712813) rotate(-330) scale(0.06 -0.06)">
     <defs>
      <path id="DejaVuSans-39" d="M 703 97 
L 703 672 
Q 941 559 1184 500 
Q 1428 441 1663 441 
Q 2288 441 2617 861 
Q 2947 1281 2994 2138 
Q 2813 1869 2534 1725 
Q 2256 1581 1919 1581 
Q 1219 1581 811 2004 
Q 403 2428 403 3163 
Q 403 3881 828 4315 
Q 1253 4750 1959 4750 
Q 2769 4750 3195 4129 
Q 3622 3509 3622 2328 
Q 3622 1225 3098 567 
Q 2575 -91 1691 -91 
Q 1453 -91 1209 -44 
Q 966 3 703 97 
z
M 1959 2075 
Q 2384 2075 2632 2365 
Q 2881 2656 2881 3163 
Q 2881 3666 2632 3958 
Q 2384 4250 1959 4250 
Q 1534 4250 1286 3958 
Q 1038 3666 1038 3163 
Q 1038 2656 1286 2365 
Q 1534 2075 1959 2075 
z
" transform="scale(0.015625)"/>
     </defs>
     <use xlink:href="#DejaVuSans-37"/>
     <use xlink:href="#DejaVuSans-39" x="63.623047"/>
     <use xlink:href="#DejaVuSans-37" x="127.246094"/>
     <use xlink:href="#DejaVuSans-31" x="190.869141"/>
    </g>
   </g>
   <g id="text_42">
    <!-- 3111 -->
    <g transform="translate(591.581207 307.913429) rotate(-338.571429) scale(0.06 -0.06)">
     <use xlink:href="#DejaVuSans-33"/>
     <use xlink:href="#DejaVuSans-31" x="63.623047"/>
     <use xlink:href="#DejaVuSans-31" x="127.246094"/>
     <use xlink:href="#DejaVuSans-31" x="190.869141"/>
    </g>
   </g>
   <g id="text_43">
    <!-- 1290 -->
    <g transform="translate(584.916931 330.357991) rotate(-347.142857) scale(0.06 -0.06)">
     <use xlink:href="#DejaVuSans-31"/>
     <use xlink:href="#DejaVuSans-32" x="63.623047"/>
     <use xlink:href="#DejaVuSans-39" x="127.246094"/>
     <use xlink:href="#DejaVuSans-30" x="190.869141"/>
    </g>
   </g>
   <g id="text_44">
    <!-- 1142 -->
    <g transform="translate(581.672278 353.545124) rotate(-355.714286) scale(0.06 -0.06)">
     <use xlink:href="#DejaVuSans-31"/>
     <use xlink:href="#DejaVuSans-31" x="63.623047"/>
     <use xlink:href="#DejaVuSans-34" x="127.246094"/>
     <use xlink:href="#DejaVuSans-32" x="190.869141"/>
    </g>
   </g>
   <g id="text_45">
    <!-- 242 -->
    <g transform="translate(585.726553 376.671585) rotate(-4.285714) scale(0.06 -0.06)">
     <use xlink:href="#DejaVuSans-32"/>
     <use xlink:href="#DejaVuSans-34" x="63.623047"/>
     <use xlink:href="#DejaVuSans-32" x="127.246094"/>
    </g>
   </g>
   <g id="text_46">
    <!-- 4166 -->
    <g transform="translate(592.790942 422.368927) rotate(-21.428571) scale(0.06 -0.06)">
     <use xlink:href="#DejaVuSans-34"/>
     <use xlink:href="#DejaVuSans-31" x="63.623047"/>
     <use xlink:href="#DejaVuSans-36" x="127.246094"/>
     <use xlink:href="#DejaVuSans-36" x="190.869141"/>
    </g>
   </g>
   <g id="text_47">
    <!-- 455 -->
    <g transform="translate(606.477913 441.446063) rotate(-30) scale(0.06 -0.06)">
     <use xlink:href="#DejaVuSans-34"/>
     <use xlink:href="#DejaVuSans-35" x="63.623047"/>
     <use xlink:href="#DejaVuSans-35" x="127.246094"/>
    </g>
   </g>
   <g id="text_48">
    <!-- 412 -->
    <g transform="translate(619.54926 460.178937) rotate(-38.571429) scale(0.06 -0.06)">
     <use xlink:href="#DejaVuSans-34"/>
     <use xlink:href="#DejaVuSans-31" x="63.623047"/>
     <use xlink:href="#DejaVuSans-32" x="127.246094"/>
    </g>
   </g>
   <g id="text_49">
    <!-- 264 -->
    <g transform="translate(635.2666 476.754397) rotate(-47.142857) scale(0.06 -0.06)">
     <use xlink:href="#DejaVuSans-32"/>
     <use xlink:href="#DejaVuSans-36" x="63.623047"/>
     <use xlink:href="#DejaVuSans-34" x="127.246094"/>
    </g>
   </g>
   <g id="text_50">
    <!-- 212 -->
    <g transform="translate(653.278835 490.802174) rotate(-55.714286) scale(0.06 -0.06)">
     <use xlink:href="#DejaVuSans-32"/>
     <use xlink:href="#DejaVuSans-31" x="63.623047"/>
     <use xlink:href="#DejaVuSans-32" x="127.246094"/>
    </g>
   </g>
   <g id="text_51">
    <!-- 1826 -->
    <g transform="translate(693.41103 513.770839) rotate(-72.857143) scale(0.06 -0.06)">
     <defs>
      <path id="DejaVuSans-38" d="M 2034 2216 
Q 1584 2216 1326 1975 
Q 1069 1734 1069 1313 
Q 1069 891 1326 650 
Q 1584 409 2034 409 
Q 2484 409 2743 651 
Q 3003 894 3003 1313 
Q 3003 1734 2745 1975 
Q 2488 2216 2034 2216 
z
M 1403 2484 
Q 997 2584 770 2862 
Q 544 3141 544 3541 
Q 544 4100 942 4425 
Q 1341 4750 2034 4750 
Q 2731 4750 3128 4425 
Q 3525 4100 3525 3541 
Q 3525 3141 3298 2862 
Q 3072 2584 2669 2484 
Q 3125 2378 3379 2068 
Q 3634 1759 3634 1313 
Q 3634 634 3220 271 
Q 2806 -91 2034 -91 
Q 1263 -91 848 271 
Q 434 634 434 1313 
Q 434 1759 690 2068 
Q 947 2378 1403 2484 
z
M 1172 3481 
Q 1172 3119 1398 2916 
Q 1625 2713 2034 2713 
Q 2441 2713 2670 2916 
Q 2900 3119 2900 3481 
Q 2900 3844 2670 4047 
Q 2441 4250 2034 4250 
Q 1625 4250 1398 4047 
Q 1172 3844 1172 3481 
z
" transform="scale(0.015625)"/>
     </defs>
     <use xlink:href="#DejaVuSans-31"/>
     <use xlink:href="#DejaVuSans-38" x="63.623047"/>
     <use xlink:href="#DejaVuSans-32" x="127.246094"/>
     <use xlink:href="#DejaVuSans-36" x="190.869141"/>
    </g>
   </g>
   <g id="text_52">
    <!-- 1074 -->
    <g transform="translate(716.290854 518.739196) rotate(-81.428571) scale(0.06 -0.06)">
     <use xlink:href="#DejaVuSans-31"/>
     <use xlink:href="#DejaVuSans-30" x="63.623047"/>
     <use xlink:href="#DejaVuSans-37" x="127.246094"/>
     <use xlink:href="#DejaVuSans-34" x="190.869141"/>
    </g>
   </g>
   <g id="text_53">
    <!-- 493 -->
    <g transform="translate(739.655625 516.4245) rotate(-90) scale(0.06 -0.06)">
     <use xlink:href="#DejaVuSans-34"/>
     <use xlink:href="#DejaVuSans-39" x="63.623047"/>
     <use xlink:href="#DejaVuSans-33" x="127.246094"/>
    </g>
   </g>
   <g id="text_54">
    <!-- 482 -->
    <g transform="translate(757.43327 503.63975) rotate(-278.571429) scale(0.06 -0.06)">
     <use xlink:href="#DejaVuSans-34"/>
     <use xlink:href="#DejaVuSans-38" x="63.623047"/>
     <use xlink:href="#DejaVuSans-32" x="127.246094"/>
    </g>
   </g>
   <g id="text_55">
    <!-- 240 -->
    <g transform="translate(778.088058 499.179243) rotate(-287.142857) scale(0.06 -0.06)">
     <use xlink:href="#DejaVuSans-32"/>
     <use xlink:href="#DejaVuSans-34" x="63.623047"/>
     <use xlink:href="#DejaVuSans-30" x="127.246094"/>
    </g>
   </g>
   <g id="text_56">
    <!-- 1165 -->
    <g transform="translate(816.269742 481.339675) rotate(-304.285714) scale(0.06 -0.06)">
     <use xlink:href="#DejaVuSans-31"/>
     <use xlink:href="#DejaVuSans-31" x="63.623047"/>
     <use xlink:href="#DejaVuSans-36" x="127.246094"/>
     <use xlink:href="#DejaVuSans-35" x="190.869141"/>
    </g>
   </g>
   <g id="text_57">
    <!-- 823 -->
    <g transform="translate(832.943721 468.35912) rotate(-312.857143) scale(0.06 -0.06)">
     <use xlink:href="#DejaVuSans-38"/>
     <use xlink:href="#DejaVuSans-32" x="63.623047"/>
     <use xlink:href="#DejaVuSans-33" x="127.246094"/>
    </g>
   </g>
   <g id="text_58">
    <!-- 756 -->
    <g transform="translate(847.496815 453.03842) rotate(-321.428571) scale(0.06 -0.06)">
     <use xlink:href="#DejaVuSans-37"/>
     <use xlink:href="#DejaVuSans-35" x="63.623047"/>
     <use xlink:href="#DejaVuSans-36" x="127.246094"/>
    </g>
   </g>
   <g id="text_59">
    <!-- 692 -->
    <g transform="translate(859.603931 435.719813) rotate(-330) scale(0.06 -0.06)">
     <use xlink:href="#DejaVuSans-36"/>
     <use xlink:href="#DejaVuSans-39" x="63.623047"/>
     <use xlink:href="#DejaVuSans-32" x="127.246094"/>
    </g>
   </g>
   <g id="text_60">
    <!-- 555 -->
    <g transform="translate(868.994616 416.790169) rotate(-338.571429) scale(0.06 -0.06)">
     <use xlink:href="#DejaVuSans-35"/>
     <use xlink:href="#DejaVuSans-35" x="63.623047"/>
     <use xlink:href="#DejaVuSans-35" x="127.246094"/>
    </g>
   </g>
   <g id="text_61">
    <!-- 1719 -->
    <g transform="translate(878.85297 375.815738) rotate(-355.714286) scale(0.06 -0.06)">
     <use xlink:href="#DejaVuSans-31"/>
     <use xlink:href="#DejaVuSans-37" x="63.623047"/>
     <use xlink:href="#DejaVuSans-31" x="127.246094"/>
     <use xlink:href="#DejaVuSans-39" x="190.869141"/>
    </g>
   </g>
   <g id="text_62">
    <!-- 1339 -->
    <g transform="translate(879.10042 354.686253) rotate(-4.285714) scale(0.06 -0.06)">
     <use xlink:href="#DejaVuSans-31"/>
     <use xlink:href="#DejaVuSans-33" x="63.623047"/>
     <use xlink:href="#DejaVuSans-33" x="127.246094"/>
     <use xlink:href="#DejaVuSans-39" x="190.869141"/>
    </g>
   </g>
   <g id="text_63">
    <!-- 761 -->
    <g transform="translate(876.19592 333.755886) rotate(-12.857143) scale(0.06 -0.06)">
     <use xlink:href="#DejaVuSans-37"/>
     <use xlink:href="#DejaVuSans-36" x="63.623047"/>
     <use xlink:href="#DejaVuSans-31" x="127.246094"/>
    </g>
   </g>
   <g id="text_64">
    <!-- 583 -->
    <g transform="translate(870.204351 313.492187) rotate(-21.428571) scale(0.06 -0.06)">
     <use xlink:href="#DejaVuSans-35"/>
     <use xlink:href="#DejaVuSans-38" x="63.623047"/>
     <use xlink:href="#DejaVuSans-33" x="127.246094"/>
    </g>
   </g>
   <g id="text_65">
    <!-- 378 -->
    <g transform="translate(861.259556 294.347813) rotate(-30) scale(0.06 -0.06)">
     <use xlink:href="#DejaVuSans-33"/>
     <use xlink:href="#DejaVuSans-37" x="63.623047"/>
     <use xlink:href="#DejaVuSans-38" x="127.246094"/>
    </g>
   </g>
   <g id="text_66">
    <!-- 2725 -->
    <g transform="translate(835.371039 261.093102) rotate(-47.142857) scale(0.06 -0.06)">
     <use xlink:href="#DejaVuSans-32"/>
     <use xlink:href="#DejaVuSans-37" x="63.623047"/>
     <use xlink:href="#DejaVuSans-32" x="127.246094"/>
     <use xlink:href="#DejaVuSans-35" x="190.869141"/>
    </g>
   </g>
   <g id="text_67">
    <!-- 1026 -->
    <g transform="translate(819.005625 247.725619) rotate(-55.714286) scale(0.06 -0.06)">
     <use xlink:href="#DejaVuSans-31"/>
     <use xlink:href="#DejaVuSans-30" x="63.623047"/>
     <use xlink:href="#DejaVuSans-32" x="127.246094"/>
     <use xlink:href="#DejaVuSans-36" x="190.869141"/>
    </g>
   </g>
   <g id="text_68">
    <!-- 437 -->
    <g transform="translate(800.830679 236.946578) rotate(-64.285714) scale(0.06 -0.06)">
     <use xlink:href="#DejaVuSans-34"/>
     <use xlink:href="#DejaVuSans-33" x="63.623047"/>
     <use xlink:href="#DejaVuSans-37" x="127.246094"/>
    </g>
   </g>
   <g id="text_69">
    <!-- 391 -->
    <g transform="translate(781.252199 228.996765) rotate(-72.857143) scale(0.06 -0.06)">
     <use xlink:href="#DejaVuSans-33"/>
     <use xlink:href="#DejaVuSans-39" x="63.623047"/>
     <use xlink:href="#DejaVuSans-31" x="127.246094"/>
    </g>
   </g>
   <g id="text_70">
    <!-- 238 -->
    <g transform="translate(760.707536 224.053767) rotate(-81.428571) scale(0.06 -0.06)">
     <use xlink:href="#DejaVuSans-32"/>
     <use xlink:href="#DejaVuSans-33" x="63.623047"/>
     <use xlink:href="#DejaVuSans-38" x="127.246094"/>
    </g>
   </g>
   <g id="text_71">
    <!--      Agricoltura -->
    <g style="fill: #333333" transform="translate(649.657377 266.420884) scale(0.1 -0.1)">
     <defs>
      <path id="DejaVuSans-Bold-20" transform="scale(0.015625)"/>
      <path id="DejaVuSans-Bold-41" d="M 3419 850 
L 1538 850 
L 1241 0 
L 31 0 
L 1759 4666 
L 3194 4666 
L 4922 0 
L 3713 0 
L 3419 850 
z
M 1838 1716 
L 3116 1716 
L 2478 3572 
L 1838 1716 
z
" transform="scale(0.015625)"/>
      <path id="DejaVuSans-Bold-67" d="M 2919 594 
Q 2688 288 2409 144 
Q 2131 0 1766 0 
Q 1125 0 706 504 
Q 288 1009 288 1791 
Q 288 2575 706 3076 
Q 1125 3578 1766 3578 
Q 2131 3578 2409 3434 
Q 2688 3291 2919 2981 
L 2919 3500 
L 4044 3500 
L 4044 353 
Q 4044 -491 3511 -936 
Q 2978 -1381 1966 -1381 
Q 1638 -1381 1331 -1331 
Q 1025 -1281 716 -1178 
L 716 -306 
Q 1009 -475 1290 -558 
Q 1572 -641 1856 -641 
Q 2406 -641 2662 -400 
Q 2919 -159 2919 353 
L 2919 594 
z
M 2181 2772 
Q 1834 2772 1640 2515 
Q 1447 2259 1447 1791 
Q 1447 1309 1634 1061 
Q 1822 813 2181 813 
Q 2531 813 2725 1069 
Q 2919 1325 2919 1791 
Q 2919 2259 2725 2515 
Q 2531 2772 2181 2772 
z
" transform="scale(0.015625)"/>
      <path id="DejaVuSans-Bold-72" d="M 3138 2547 
Q 2991 2616 2845 2648 
Q 2700 2681 2553 2681 
Q 2122 2681 1889 2404 
Q 1656 2128 1656 1613 
L 1656 0 
L 538 0 
L 538 3500 
L 1656 3500 
L 1656 2925 
Q 1872 3269 2151 3426 
Q 2431 3584 2822 3584 
Q 2878 3584 2943 3579 
Q 3009 3575 3134 3559 
L 3138 2547 
z
" transform="scale(0.015625)"/>
      <path id="DejaVuSans-Bold-69" d="M 538 3500 
L 1656 3500 
L 1656 0 
L 538 0 
L 538 3500 
z
M 538 4863 
L 1656 4863 
L 1656 3950 
L 538 3950 
L 538 4863 
z
" transform="scale(0.015625)"/>
      <path id="DejaVuSans-Bold-63" d="M 3366 3391 
L 3366 2478 
Q 3138 2634 2908 2709 
Q 2678 2784 2431 2784 
Q 1963 2784 1702 2511 
Q 1441 2238 1441 1747 
Q 1441 1256 1702 982 
Q 1963 709 2431 709 
Q 2694 709 2930 787 
Q 3166 866 3366 1019 
L 3366 103 
Q 3103 6 2833 -42 
Q 2563 -91 2291 -91 
Q 1344 -91 809 395 
Q 275 881 275 1747 
Q 275 2613 809 3098 
Q 1344 3584 2291 3584 
Q 2566 3584 2833 3536 
Q 3100 3488 3366 3391 
z
" transform="scale(0.015625)"/>
      <path id="DejaVuSans-Bold-6f" d="M 2203 2784 
Q 1831 2784 1636 2517 
Q 1441 2250 1441 1747 
Q 1441 1244 1636 976 
Q 1831 709 2203 709 
Q 2569 709 2762 976 
Q 2956 1244 2956 1747 
Q 2956 2250 2762 2517 
Q 2569 2784 2203 2784 
z
M 2203 3584 
Q 3106 3584 3614 3096 
Q 4122 2609 4122 1747 
Q 4122 884 3614 396 
Q 3106 -91 2203 -91 
Q 1297 -91 786 396 
Q 275 884 275 1747 
Q 275 2609 786 3096 
Q 1297 3584 2203 3584 
z
" transform="scale(0.015625)"/>
      <path id="DejaVuSans-Bold-6c" d="M 538 4863 
L 1656 4863 
L 1656 0 
L 538 0 
L 538 4863 
z
" transform="scale(0.015625)"/>
      <path id="DejaVuSans-Bold-74" d="M 1759 4494 
L 1759 3500 
L 2913 3500 
L 2913 2700 
L 1759 2700 
L 1759 1216 
Q 1759 972 1856 886 
Q 1953 800 2241 800 
L 2816 800 
L 2816 0 
L 1856 0 
Q 1194 0 917 276 
Q 641 553 641 1216 
L 641 2700 
L 84 2700 
L 84 3500 
L 641 3500 
L 641 4494 
L 1759 4494 
z
" transform="scale(0.015625)"/>
      <path id="DejaVuSans-Bold-75" d="M 500 1363 
L 500 3500 
L 1625 3500 
L 1625 3150 
Q 1625 2866 1622 2436 
Q 1619 2006 1619 1863 
Q 1619 1441 1641 1255 
Q 1663 1069 1716 984 
Q 1784 875 1895 815 
Q 2006 756 2150 756 
Q 2500 756 2700 1025 
Q 2900 1294 2900 1772 
L 2900 3500 
L 4019 3500 
L 4019 0 
L 2900 0 
L 2900 506 
Q 2647 200 2364 54 
Q 2081 -91 1741 -91 
Q 1134 -91 817 281 
Q 500 653 500 1363 
z
" transform="scale(0.015625)"/>
      <path id="DejaVuSans-Bold-61" d="M 2106 1575 
Q 1756 1575 1579 1456 
Q 1403 1338 1403 1106 
Q 1403 894 1545 773 
Q 1688 653 1941 653 
Q 2256 653 2472 879 
Q 2688 1106 2688 1447 
L 2688 1575 
L 2106 1575 
z
M 3816 1997 
L 3816 0 
L 2688 0 
L 2688 519 
Q 2463 200 2181 54 
Q 1900 -91 1497 -91 
Q 953 -91 614 226 
Q 275 544 275 1050 
Q 275 1666 698 1953 
Q 1122 2241 2028 2241 
L 2688 2241 
L 2688 2328 
Q 2688 2594 2478 2717 
Q 2269 2841 1825 2841 
Q 1466 2841 1156 2769 
Q 847 2697 581 2553 
L 581 3406 
Q 941 3494 1303 3539 
Q 1666 3584 2028 3584 
Q 2975 3584 3395 3211 
Q 3816 2838 3816 1997 
z
" transform="scale(0.015625)"/>
     </defs>
     <use xlink:href="#DejaVuSans-Bold-20"/>
     <use xlink:href="#DejaVuSans-Bold-20" x="34.814453"/>
     <use xlink:href="#DejaVuSans-Bold-20" x="69.628906"/>
     <use xlink:href="#DejaVuSans-Bold-20" x="104.443359"/>
     <use xlink:href="#DejaVuSans-Bold-20" x="139.257812"/>
     <use xlink:href="#DejaVuSans-Bold-41" x="174.072266"/>
     <use xlink:href="#DejaVuSans-Bold-67" x="251.464844"/>
     <use xlink:href="#DejaVuSans-Bold-72" x="323.046875"/>
     <use xlink:href="#DejaVuSans-Bold-69" x="372.363281"/>
     <use xlink:href="#DejaVuSans-Bold-63" x="406.640625"/>
     <use xlink:href="#DejaVuSans-Bold-6f" x="465.917969"/>
     <use xlink:href="#DejaVuSans-Bold-6c" x="534.619141"/>
     <use xlink:href="#DejaVuSans-Bold-74" x="568.896484"/>
     <use xlink:href="#DejaVuSans-Bold-75" x="616.699219"/>
     <use xlink:href="#DejaVuSans-Bold-72" x="687.890625"/>
     <use xlink:href="#DejaVuSans-Bold-61" x="737.207031"/>
    </g>
   </g>
   <g id="text_72">
    <!--      Europa -->
    <g style="fill: #333333" transform="translate(601.367962 341.686254) scale(0.1 -0.1)">
     <defs>
      <path id="DejaVuSans-Bold-45" d="M 588 4666 
L 3834 4666 
L 3834 3756 
L 1791 3756 
L 1791 2888 
L 3713 2888 
L 3713 1978 
L 1791 1978 
L 1791 909 
L 3903 909 
L 3903 0 
L 588 0 
L 588 4666 
z
" transform="scale(0.015625)"/>
      <path id="DejaVuSans-Bold-70" d="M 1656 506 
L 1656 -1331 
L 538 -1331 
L 538 3500 
L 1656 3500 
L 1656 2988 
Q 1888 3294 2169 3439 
Q 2450 3584 2816 3584 
Q 3463 3584 3878 3070 
Q 4294 2556 4294 1747 
Q 4294 938 3878 423 
Q 3463 -91 2816 -91 
Q 2450 -91 2169 54 
Q 1888 200 1656 506 
z
M 2400 2772 
Q 2041 2772 1848 2508 
Q 1656 2244 1656 1747 
Q 1656 1250 1848 986 
Q 2041 722 2400 722 
Q 2759 722 2948 984 
Q 3138 1247 3138 1747 
Q 3138 2247 2948 2509 
Q 2759 2772 2400 2772 
z
" transform="scale(0.015625)"/>
     </defs>
     <use xlink:href="#DejaVuSans-Bold-20"/>
     <use xlink:href="#DejaVuSans-Bold-20" x="34.814453"/>
     <use xlink:href="#DejaVuSans-Bold-20" x="69.628906"/>
     <use xlink:href="#DejaVuSans-Bold-20" x="104.443359"/>
     <use xlink:href="#DejaVuSans-Bold-20" x="139.257812"/>
     <use xlink:href="#DejaVuSans-Bold-45" x="174.072266"/>
     <use xlink:href="#DejaVuSans-Bold-75" x="242.382812"/>
     <use xlink:href="#DejaVuSans-Bold-72" x="313.574219"/>
     <use xlink:href="#DejaVuSans-Bold-6f" x="362.890625"/>
     <use xlink:href="#DejaVuSans-Bold-70" x="431.591797"/>
     <use xlink:href="#DejaVuSans-Bold-61" x="503.173828"/>
    </g>
   </g>
   <g id="text_73">
    <!-- Dio -->
    <g style="fill: #333333" transform="translate(642.010525 435.491924) scale(0.1 -0.1)">
     <defs>
      <path id="DejaVuSans-Bold-44" d="M 1791 3756 
L 1791 909 
L 2222 909 
Q 2959 909 3348 1275 
Q 3738 1641 3738 2338 
Q 3738 3031 3350 3393 
Q 2963 3756 2222 3756 
L 1791 3756 
z
M 588 4666 
L 1856 4666 
Q 2919 4666 3439 4514 
Q 3959 4363 4331 4000 
Q 4659 3684 4818 3271 
Q 4978 2859 4978 2338 
Q 4978 1809 4818 1395 
Q 4659 981 4331 666 
Q 3956 303 3431 151 
Q 2906 0 1856 0 
L 588 0 
L 588 4666 
z
" transform="scale(0.015625)"/>
     </defs>
     <use xlink:href="#DejaVuSans-Bold-44"/>
     <use xlink:href="#DejaVuSans-Bold-69" x="83.007812"/>
     <use xlink:href="#DejaVuSans-Bold-6f" x="117.285156"/>
    </g>
   </g>
   <g id="text_74">
    <!-- Società -->
    <g style="fill: #333333" transform="translate(717.130469 477.239375) scale(0.1 -0.1)">
     <defs>
      <path id="DejaVuSans-Bold-53" d="M 3834 4519 
L 3834 3531 
Q 3450 3703 3084 3790 
Q 2719 3878 2394 3878 
Q 1963 3878 1756 3759 
Q 1550 3641 1550 3391 
Q 1550 3203 1689 3098 
Q 1828 2994 2194 2919 
L 2706 2816 
Q 3484 2659 3812 2340 
Q 4141 2022 4141 1434 
Q 4141 663 3683 286 
Q 3225 -91 2284 -91 
Q 1841 -91 1394 -6 
Q 947 78 500 244 
L 500 1259 
Q 947 1022 1364 901 
Q 1781 781 2169 781 
Q 2563 781 2772 912 
Q 2981 1044 2981 1288 
Q 2981 1506 2839 1625 
Q 2697 1744 2272 1838 
L 1806 1941 
Q 1106 2091 782 2419 
Q 459 2747 459 3303 
Q 459 4000 909 4375 
Q 1359 4750 2203 4750 
Q 2588 4750 2994 4692 
Q 3400 4634 3834 4519 
z
" transform="scale(0.015625)"/>
      <path id="DejaVuSans-Bold-65" d="M 4031 1759 
L 4031 1441 
L 1416 1441 
Q 1456 1047 1700 850 
Q 1944 653 2381 653 
Q 2734 653 3104 758 
Q 3475 863 3866 1075 
L 3866 213 
Q 3469 63 3072 -14 
Q 2675 -91 2278 -91 
Q 1328 -91 801 392 
Q 275 875 275 1747 
Q 275 2603 792 3093 
Q 1309 3584 2216 3584 
Q 3041 3584 3536 3087 
Q 4031 2591 4031 1759 
z
M 2881 2131 
Q 2881 2450 2695 2645 
Q 2509 2841 2209 2841 
Q 1884 2841 1681 2658 
Q 1478 2475 1428 2131 
L 2881 2131 
z
" transform="scale(0.015625)"/>
      <path id="DejaVuSans-Bold-e0" d="M 2106 1575 
Q 1756 1575 1579 1456 
Q 1403 1338 1403 1106 
Q 1403 894 1545 773 
Q 1688 653 1941 653 
Q 2256 653 2472 879 
Q 2688 1106 2688 1447 
L 2688 1575 
L 2106 1575 
z
M 3816 1997 
L 3816 0 
L 2688 0 
L 2688 519 
Q 2463 200 2181 54 
Q 1900 -91 1497 -91 
Q 953 -91 614 226 
Q 275 544 275 1050 
Q 275 1666 698 1953 
Q 1122 2241 2028 2241 
L 2688 2241 
L 2688 2328 
Q 2688 2594 2478 2717 
Q 2269 2841 1825 2841 
Q 1466 2841 1156 2769 
Q 847 2697 581 2553 
L 581 3406 
Q 941 3494 1303 3539 
Q 1666 3584 2028 3584 
Q 2975 3584 3395 3211 
Q 3816 2838 3816 1997 
z
M 1759 5119 
L 2641 3944 
L 2028 3944 
L 875 5119 
L 1759 5119 
z
" transform="scale(0.015625)"/>
     </defs>
     <use xlink:href="#DejaVuSans-Bold-53"/>
     <use xlink:href="#DejaVuSans-Bold-6f" x="72.021484"/>
     <use xlink:href="#DejaVuSans-Bold-63" x="140.722656"/>
     <use xlink:href="#DejaVuSans-Bold-69" x="200"/>
     <use xlink:href="#DejaVuSans-Bold-65" x="234.277344"/>
     <use xlink:href="#DejaVuSans-Bold-74" x="302.099609"/>
     <use xlink:href="#DejaVuSans-Bold-e0" x="349.902344"/>
    </g>
   </g>
   <g id="text_75">
    <!-- Suolo -->
    <g style="fill: #333333" transform="translate(808.944944 435.491924) scale(0.1 -0.1)">
     <use xlink:href="#DejaVuSans-Bold-53"/>
     <use xlink:href="#DejaVuSans-Bold-75" x="72.021484"/>
     <use xlink:href="#DejaVuSans-Bold-6f" x="143.212891"/>
     <use xlink:href="#DejaVuSans-Bold-6c" x="211.914062"/>
     <use xlink:href="#DejaVuSans-Bold-6f" x="246.191406"/>
    </g>
   </g>
   <g id="text_76">
    <!-- Gruppo           -->
    <g style="fill: #333333" transform="translate(807.971882 336.087348) scale(0.1 -0.1)">
     <defs>
      <path id="DejaVuSans-Bold-47" d="M 4781 347 
Q 4331 128 3847 18 
Q 3363 -91 2847 -91 
Q 1681 -91 1000 561 
Q 319 1213 319 2328 
Q 319 3456 1012 4103 
Q 1706 4750 2913 4750 
Q 3378 4750 3804 4662 
Q 4231 4575 4609 4403 
L 4609 3438 
Q 4219 3659 3833 3768 
Q 3447 3878 3059 3878 
Q 2341 3878 1952 3476 
Q 1563 3075 1563 2328 
Q 1563 1588 1938 1184 
Q 2313 781 3003 781 
Q 3191 781 3352 804 
Q 3513 828 3641 878 
L 3641 1784 
L 2906 1784 
L 2906 2591 
L 4781 2591 
L 4781 347 
z
" transform="scale(0.015625)"/>
     </defs>
     <use xlink:href="#DejaVuSans-Bold-47"/>
     <use xlink:href="#DejaVuSans-Bold-72" x="82.080078"/>
     <use xlink:href="#DejaVuSans-Bold-75" x="131.396484"/>
     <use xlink:href="#DejaVuSans-Bold-70" x="202.587891"/>
     <use xlink:href="#DejaVuSans-Bold-70" x="274.169922"/>
     <use xlink:href="#DejaVuSans-Bold-6f" x="345.751953"/>
     <use xlink:href="#DejaVuSans-Bold-20" x="414.453125"/>
     <use xlink:href="#DejaVuSans-Bold-20" x="449.267578"/>
     <use xlink:href="#DejaVuSans-Bold-20" x="484.082031"/>
     <use xlink:href="#DejaVuSans-Bold-20" x="518.896484"/>
     <use xlink:href="#DejaVuSans-Bold-20" x="553.710938"/>
     <use xlink:href="#DejaVuSans-Bold-20" x="588.525391"/>
     <use xlink:href="#DejaVuSans-Bold-20" x="623.339844"/>
     <use xlink:href="#DejaVuSans-Bold-20" x="658.154297"/>
     <use xlink:href="#DejaVuSans-Bold-20" x="692.96875"/>
     <use xlink:href="#DejaVuSans-Bold-20" x="727.783203"/>
    </g>
    <!-- di pressione           -->
    <g style="fill: #333333" transform="translate(794.172663 347.28516) scale(0.1 -0.1)">
     <defs>
      <path id="DejaVuSans-Bold-64" d="M 2919 2988 
L 2919 4863 
L 4044 4863 
L 4044 0 
L 2919 0 
L 2919 506 
Q 2688 197 2409 53 
Q 2131 -91 1766 -91 
Q 1119 -91 703 423 
Q 288 938 288 1747 
Q 288 2556 703 3070 
Q 1119 3584 1766 3584 
Q 2128 3584 2408 3439 
Q 2688 3294 2919 2988 
z
M 2181 722 
Q 2541 722 2730 984 
Q 2919 1247 2919 1747 
Q 2919 2247 2730 2509 
Q 2541 2772 2181 2772 
Q 1825 2772 1636 2509 
Q 1447 2247 1447 1747 
Q 1447 1247 1636 984 
Q 1825 722 2181 722 
z
" transform="scale(0.015625)"/>
      <path id="DejaVuSans-Bold-73" d="M 3272 3391 
L 3272 2541 
Q 2913 2691 2578 2766 
Q 2244 2841 1947 2841 
Q 1628 2841 1473 2761 
Q 1319 2681 1319 2516 
Q 1319 2381 1436 2309 
Q 1553 2238 1856 2203 
L 2053 2175 
Q 2913 2066 3209 1816 
Q 3506 1566 3506 1031 
Q 3506 472 3093 190 
Q 2681 -91 1863 -91 
Q 1516 -91 1145 -36 
Q 775 19 384 128 
L 384 978 
Q 719 816 1070 734 
Q 1422 653 1784 653 
Q 2113 653 2278 743 
Q 2444 834 2444 1013 
Q 2444 1163 2330 1236 
Q 2216 1309 1875 1350 
L 1678 1375 
Q 931 1469 631 1722 
Q 331 1975 331 2491 
Q 331 3047 712 3315 
Q 1094 3584 1881 3584 
Q 2191 3584 2531 3537 
Q 2872 3491 3272 3391 
z
" transform="scale(0.015625)"/>
      <path id="DejaVuSans-Bold-6e" d="M 4056 2131 
L 4056 0 
L 2931 0 
L 2931 347 
L 2931 1631 
Q 2931 2084 2911 2256 
Q 2891 2428 2841 2509 
Q 2775 2619 2662 2680 
Q 2550 2741 2406 2741 
Q 2056 2741 1856 2470 
Q 1656 2200 1656 1722 
L 1656 0 
L 538 0 
L 538 3500 
L 1656 3500 
L 1656 2988 
Q 1909 3294 2193 3439 
Q 2478 3584 2822 3584 
Q 3428 3584 3742 3212 
Q 4056 2841 4056 2131 
z
" transform="scale(0.015625)"/>
     </defs>
     <use xlink:href="#DejaVuSans-Bold-64"/>
     <use xlink:href="#DejaVuSans-Bold-69" x="71.582031"/>
     <use xlink:href="#DejaVuSans-Bold-20" x="105.859375"/>
     <use xlink:href="#DejaVuSans-Bold-70" x="140.673828"/>
     <use xlink:href="#DejaVuSans-Bold-72" x="212.255859"/>
     <use xlink:href="#DejaVuSans-Bold-65" x="261.572266"/>
     <use xlink:href="#DejaVuSans-Bold-73" x="329.394531"/>
     <use xlink:href="#DejaVuSans-Bold-73" x="388.916016"/>
     <use xlink:href="#DejaVuSans-Bold-69" x="448.4375"/>
     <use xlink:href="#DejaVuSans-Bold-6f" x="482.714844"/>
     <use xlink:href="#DejaVuSans-Bold-6e" x="551.416016"/>
     <use xlink:href="#DejaVuSans-Bold-65" x="622.607422"/>
     <use xlink:href="#DejaVuSans-Bold-20" x="690.429688"/>
     <use xlink:href="#DejaVuSans-Bold-20" x="725.244141"/>
     <use xlink:href="#DejaVuSans-Bold-20" x="760.058594"/>
     <use xlink:href="#DejaVuSans-Bold-20" x="794.873047"/>
     <use xlink:href="#DejaVuSans-Bold-20" x="829.6875"/>
     <use xlink:href="#DejaVuSans-Bold-20" x="864.501953"/>
     <use xlink:href="#DejaVuSans-Bold-20" x="899.316406"/>
     <use xlink:href="#DejaVuSans-Bold-20" x="934.130859"/>
     <use xlink:href="#DejaVuSans-Bold-20" x="968.945312"/>
     <use xlink:href="#DejaVuSans-Bold-20" x="1003.759766"/>
    </g>
   </g>
   <g id="text_77">
    <!-- Roma -->
    <g style="fill: #333333" transform="translate(770.239498 266.459947) scale(0.1 -0.1)">
     <defs>
      <path id="DejaVuSans-Bold-52" d="M 2297 2597 
Q 2675 2597 2839 2737 
Q 3003 2878 3003 3200 
Q 3003 3519 2839 3656 
Q 2675 3794 2297 3794 
L 1791 3794 
L 1791 2597 
L 2297 2597 
z
M 1791 1766 
L 1791 0 
L 588 0 
L 588 4666 
L 2425 4666 
Q 3347 4666 3776 4356 
Q 4206 4047 4206 3378 
Q 4206 2916 3982 2619 
Q 3759 2322 3309 2181 
Q 3556 2125 3751 1926 
Q 3947 1728 4147 1325 
L 4800 0 
L 3519 0 
L 2950 1159 
Q 2778 1509 2601 1637 
Q 2425 1766 2131 1766 
L 1791 1766 
z
" transform="scale(0.015625)"/>
      <path id="DejaVuSans-Bold-6d" d="M 3781 2919 
Q 3994 3244 4286 3414 
Q 4578 3584 4928 3584 
Q 5531 3584 5847 3212 
Q 6163 2841 6163 2131 
L 6163 0 
L 5038 0 
L 5038 1825 
Q 5041 1866 5042 1909 
Q 5044 1953 5044 2034 
Q 5044 2406 4934 2573 
Q 4825 2741 4581 2741 
Q 4263 2741 4089 2478 
Q 3916 2216 3909 1719 
L 3909 0 
L 2784 0 
L 2784 1825 
Q 2784 2406 2684 2573 
Q 2584 2741 2328 2741 
Q 2006 2741 1831 2477 
Q 1656 2213 1656 1722 
L 1656 0 
L 531 0 
L 531 3500 
L 1656 3500 
L 1656 2988 
Q 1863 3284 2130 3434 
Q 2397 3584 2719 3584 
Q 3081 3584 3359 3409 
Q 3638 3234 3781 2919 
z
" transform="scale(0.015625)"/>
     </defs>
     <use xlink:href="#DejaVuSans-Bold-52"/>
     <use xlink:href="#DejaVuSans-Bold-6f" x="77.001953"/>
     <use xlink:href="#DejaVuSans-Bold-6d" x="145.703125"/>
     <use xlink:href="#DejaVuSans-Bold-61" x="249.902344"/>
    </g>
   </g>
  </g>
 </g>
 <defs>
  <clipPath id="p6fd564ea2c">
   <path d="M 1015.2 363.6 
C 1015.2 327.19843 1008.029684 291.150818 994.099406 257.520153 
C 980.169128 223.889487 959.749797 193.329798 934.01 167.59 
C 908.270202 141.850203 877.710513 121.430872 844.079847 107.500594 
C 810.449182 93.570316 774.40157 86.4 738 86.4 
C 701.59843 86.4 665.550818 93.570316 631.920153 107.500594 
C 598.289487 121.430872 567.729798 141.850203 541.99 167.59 
C 516.250203 193.329798 495.830872 223.889487 481.900594 257.520153 
C 467.970316 291.150818 460.8 327.19843 460.8 363.6 
C 460.8 400.00157 467.970316 436.049182 481.900594 469.679847 
C 495.830872 503.310513 516.250203 533.870202 541.99 559.61 
C 567.729798 585.349797 598.289487 605.769128 631.920153 619.699406 
C 665.550818 633.629684 701.59843 640.8 738 640.8 
C 774.40157 640.8 810.449182 633.629684 844.079847 619.699406 
C 877.710513 605.769128 908.270202 585.349797 934.01 559.61 
C 959.749797 533.870202 980.169128 503.310513 994.099406 469.679847 
C 1008.029684 436.049182 1015.2 400.00157 1015.2 363.6 
M 738 363.6 
C 738 363.6 738 363.6 738 363.6 
C 738 363.6 738 363.6 738 363.6 
C 738 363.6 738 363.6 738 363.6 
C 738 363.6 738 363.6 738 363.6 
C 738 363.6 738 363.6 738 363.6 
C 738 363.6 738 363.6 738 363.6 
C 738 363.6 738 363.6 738 363.6 
C 738 363.6 738 363.6 738 363.6 
C 738 363.6 738 363.6 738 363.6 
C 738 363.6 738 363.6 738 363.6 
C 738 363.6 738 363.6 738 363.6 
C 738 363.6 738 363.6 738 363.6 
C 738 363.6 738 363.6 738 363.6 
C 738 363.6 738 363.6 738 363.6 
C 738 363.6 738 363.6 738 363.6 
C 738 363.6 738 363.6 738 363.6 
z
"/>
  </clipPath>
 </defs>
</svg>
